<svg xmlns="http://www.w3.org/2000/svg" viewBox="0 0 500 500"><g id="freepik--background-complete--inject-469"><rect y="382.4" width="500" height="0.25" style="fill:#ebebeb"></rect><rect x="416.78" y="398.49" width="33.12" height="0.25" style="fill:#ebebeb"></rect><rect x="322.53" y="401.21" width="8.69" height="0.25" style="fill:#ebebeb"></rect><rect x="396.59" y="389.21" width="19.19" height="0.25" style="fill:#ebebeb"></rect><rect x="52.46" y="390.89" width="43.19" height="0.25" style="fill:#ebebeb"></rect><rect x="104.56" y="390.89" width="6.33" height="0.25" style="fill:#ebebeb"></rect><rect x="131.47" y="395.11" width="93.68" height="0.25" style="fill:#ebebeb"></rect><path d="M237,337.8H43.91a5.71,5.71,0,0,1-5.7-5.71V60.66A5.71,5.71,0,0,1,43.91,55H237a5.71,5.71,0,0,1,5.71,5.71V332.09A5.71,5.71,0,0,1,237,337.8ZM43.91,55.2a5.46,5.46,0,0,0-5.45,5.46V332.09a5.46,5.46,0,0,0,5.45,5.46H237a5.47,5.47,0,0,0,5.46-5.46V60.66A5.47,5.47,0,0,0,237,55.2Z" style="fill:#ebebeb"></path><path d="M453.31,337.8H260.21a5.72,5.72,0,0,1-5.71-5.71V60.66A5.72,5.72,0,0,1,260.21,55h193.1A5.71,5.71,0,0,1,459,60.66V332.09A5.71,5.71,0,0,1,453.31,337.8ZM260.21,55.2a5.47,5.47,0,0,0-5.46,5.46V332.09a5.47,5.47,0,0,0,5.46,5.46h193.1a5.47,5.47,0,0,0,5.46-5.46V60.66a5.47,5.47,0,0,0-5.46-5.46Z" style="fill:#ebebeb"></path><circle cx="347.13" cy="162.62" r="41.55" transform="translate(70.55 428.04) rotate(-68.92)" style="fill:#fafafa"></circle><path d="M421.28,154.43a6.77,6.77,0,0,0-6.76-6.77,6.62,6.62,0,0,0-1.95.29,14.3,14.3,0,0,0-16.81-16.16,12.53,12.53,0,0,0-23.23,6.33h-.21a11.55,11.55,0,0,0,0,23.09h42.39A6.77,6.77,0,0,0,421.28,154.43Z" style="fill:#f5f5f5"></path><path d="M331,197.68a6.77,6.77,0,0,0-6.77-6.77,6.84,6.84,0,0,0-1.94.29A14.31,14.31,0,0,0,305.42,175a12.53,12.53,0,0,0-23.23,6.33H282a11.55,11.55,0,0,0,0,23.09h42.39A6.77,6.77,0,0,0,331,197.68Z" style="fill:#f5f5f5"></path><path d="M186.66,234.84a6.77,6.77,0,0,0-6.77-6.76,7,7,0,0,0-1.94.28A14.34,14.34,0,0,0,163.77,212a14.41,14.41,0,0,0-2.64.25,12.52,12.52,0,0,0-23.22,6.33h-.21a11.55,11.55,0,1,0,0,23.09h42.38A6.76,6.76,0,0,0,186.66,234.84Z" style="fill:#f5f5f5"></path><path d="M417.37,236.77a4.09,4.09,0,0,0-4.09-4.09,4.14,4.14,0,0,0-1.17.17,8.67,8.67,0,0,0-8.57-9.92,9.33,9.33,0,0,0-1.6.15,7.56,7.56,0,0,0-14,3.83h-.13a7,7,0,1,0,0,14H413.4A4.08,4.08,0,0,0,417.37,236.77Z" style="fill:#f5f5f5"></path><path d="M251.52,114.28a4.09,4.09,0,0,0-4.09-4.09,3.88,3.88,0,0,0-1.18.18,8.61,8.61,0,0,0-8.57-9.92,8.4,8.4,0,0,0-1.59.15,7.57,7.57,0,0,0-14,3.82h-.12a7,7,0,1,0,0,14h25.61A4.09,4.09,0,0,0,251.52,114.28Z" style="fill:#ebebeb"></path><path d="M107.11,116.53a4.09,4.09,0,0,0-4.09-4.09,4.16,4.16,0,0,0-1.18.17,8.67,8.67,0,0,0-8.57-9.92,9.22,9.22,0,0,0-1.59.15,7.57,7.57,0,0,0-14,3.83h-.13a7,7,0,0,0,0,14h25.62A4.08,4.08,0,0,0,107.11,116.53Z" style="fill:#ebebeb"></path><path d="M436.84,382.51c-11-13.79-105.56-131.87-118.73-131.9-14,0-40.62,32.67-40.62,32.67s-46.33-57.42-66.18-55.86C192.52,228.89,70.8,367.57,57.74,382.51Z" style="fill:#f0f0f0"></path></g><g id="freepik--Shadow--inject-469"><ellipse id="freepik--path--inject-469" cx="250" cy="416.24" rx="193.89" ry="11.32" style="fill:#f5f5f5"></ellipse></g><g id="freepik--Trees--inject-469"><path d="M385.12,371.66S379,286.54,412.77,201.4l-4.07-3.64s-36.95,63.57-40.3,175.07Z" style="fill:#4F719D"></path><g style="opacity:0.5;isolation:isolate"><path d="M385.12,371.66S379,286.54,412.77,201.4l-4.07-3.64s-36.95,63.57-40.3,175.07Z" style="fill:#fff"></path></g><path d="M421.9,179.06c10.54-5.87,24.69,5.71,25.55,22.27A31.09,31.09,0,0,0,443,198.8c-.49-4.18-1-7.89-1-7.89v7.45c-.87-.39-1.81-.77-2.84-1.13l-.41-4-.59,3.7a35.21,35.21,0,0,0-4.28-1.07l-1-11.78-1.8,11.37a30.09,30.09,0,0,0-4.48-.13l-.58-8-.6,8.07a29.48,29.48,0,0,0-3.83.6L421,184s-.44,6.65-.92,12.27a31.08,31.08,0,0,0-10.14,5v-1.46S412.27,184.42,421.9,179.06Z" style="fill:#4F719D"></path><path d="M408.36,172.78c-7.34-9.58-24.93-4.58-32.3,10.28a31.34,31.34,0,0,1,5.1-.55c2.11-3.65,4-6.86,4-6.86l-3,6.84c.94,0,2,0,3,.1l2-3.55-.93,3.63a36.86,36.86,0,0,1,4.36.71L396.32,173l-2.87,11.15a30.65,30.65,0,0,1,4.17,1.66l3.71-7.11-2.66,7.65a29.29,29.29,0,0,1,3.28,2.07l5.22-10.72s-2.24,6.27-4,11.63a31,31,0,0,1,7.3,8.63l.58-1.34S415.06,181.53,408.36,172.78Z" style="fill:#4F719D"></path><path d="M399.11,193.58c8.58-7.25,14.11,0,14.11,0a17.52,17.52,0,0,0-8.41,4.58l-1-1.49v2.42c-.6.61-1.19,1.24-1.75,1.89l-1.54-4.31.38,5.71c-.82,1-1.59,2.09-2.3,3.15l-.51-4.2-.34,5.5c-.75,1.19-1.44,2.36-2,3.47l-.33-7.67-.82,9.82c-1.5,2.94-2.32,5-2.32,5S390.53,200.82,399.11,193.58Z" style="fill:#4F719D"></path><path d="M419.42,213.62l-1.73.84c-.15-1.29-.33-2.65-.55-4l1.28-2-1.48.77c-.08-.46-.17-.91-.26-1.37l1.74-3.93-2.28,1.45c-.9-3.73-2.16-7-3.91-8.7,0,0,18,7.2,6.14,26.27,0,0-.1-3.16-.55-7.33Z" style="fill:#4F719D"></path><path d="M402.51,196.11,400,190.36l.79,5.85-.9.1-3.47-5,.55,5.53A35,35,0,0,0,393,198a43.22,43.22,0,0,0-4.12,1.72l-1.51-5,.48,5.49c-1.32.66-2.6,1.37-3.84,2.11L383.4,198l-.26,4.88c-1.52.94-3,1.9-4.3,2.85l.68-7.73-1.75,8.51c-1.36,1-2.59,2-3.65,2.83l.25-5.37-1.85,6.72c-1.52,1.3-2.39,2.14-2.39,2.14C372.22,194,380,187.09,392.25,186s20,12,20,12S408.66,195.93,402.51,196.11Z" style="fill:#4F719D"></path><path d="M436,221.62l-1.51,5.52c-.43-1.43-1-3.27-1.79-5.32l1.58-8.13L432,220a62.93,62.93,0,0,0-4.29-8.81l2.13-5.56-3.09,4c-.5-.78-1-1.53-1.58-2.26l1.24-3.5-1.72,2.88q-.57-.72-1.17-1.38l1.53-4.69-2.18,4a21.45,21.45,0,0,0-3.66-3.07l2.34-5.7s-1.53,2.28-3.39,5.08a13.34,13.34,0,0,0-5.95-1.7,20.23,20.23,0,0,1,10.91-7.09c6.86-1.52,20.4,11.65,12.2,38,0,0-.15-.63-.44-1.69Z" style="fill:#4F719D"></path><path d="M428.72,168.83l.89,3.48a8.46,8.46,0,0,0-1.26.09l-1.06-4.52.59,4.61a9.69,9.69,0,0,0-2.56.95l-1.47-6.11.65,6.59c-.32.2-.65.42-1,.67l-1.74-5.76L423,175a23.93,23.93,0,0,0-4.4,5.06v-8.26L416.81,183a66.39,66.39,0,0,0-4.58,10.59s1-29.94,8.43-32.8,10.68,11.82,10.68,11.82a4,4,0,0,0-1-.23Z" style="fill:#4F719D"></path><path d="M416,201.33,415,207l-1.77-5.62L410,205.39l-.86-4.06-3.57,2.59s.93-7.2,3.32-10.34S417.54,193.21,416,201.33Z" style="fill:#4F719D"></path><g style="opacity:0.30000000000000004"><path d="M421.9,179.06c10.54-5.87,24.69,5.71,25.55,22.27A31.09,31.09,0,0,0,443,198.8c-.49-4.18-1-7.89-1-7.89v7.45c-.87-.39-1.81-.77-2.84-1.13l-.41-4-.59,3.7a35.21,35.21,0,0,0-4.28-1.07l-1-11.78-1.8,11.37a30.09,30.09,0,0,0-4.48-.13l-.58-8-.6,8.07a29.48,29.48,0,0,0-3.83.6L421,184s-.44,6.65-.92,12.27a31.08,31.08,0,0,0-10.14,5v-1.46S412.27,184.42,421.9,179.06Z" style="fill:#fff"></path><path d="M408.36,172.78c-7.34-9.58-24.93-4.58-32.3,10.28a31.34,31.34,0,0,1,5.1-.55c2.11-3.65,4-6.86,4-6.86l-3,6.84c.94,0,2,0,3,.1l2-3.55-.93,3.63a36.86,36.86,0,0,1,4.36.71L396.32,173l-2.87,11.15a30.65,30.65,0,0,1,4.17,1.66l3.71-7.11-2.66,7.65a29.29,29.29,0,0,1,3.28,2.07l5.22-10.72s-2.24,6.27-4,11.63a31,31,0,0,1,7.3,8.63l.58-1.34S415.06,181.53,408.36,172.78Z" style="fill:#fff"></path><path d="M399.11,193.58c8.58-7.25,14.11,0,14.11,0a17.52,17.52,0,0,0-8.41,4.58l-1-1.49v2.42c-.6.61-1.19,1.24-1.75,1.89l-1.54-4.31.38,5.71c-.82,1-1.59,2.09-2.3,3.15l-.51-4.2-.34,5.5c-.75,1.19-1.44,2.36-2,3.47l-.33-7.67-.82,9.82c-1.5,2.94-2.32,5-2.32,5S390.53,200.82,399.11,193.58Z" style="fill:#fff"></path><path d="M419.42,213.62l-1.73.84c-.15-1.29-.33-2.65-.55-4l1.28-2-1.48.77c-.08-.46-.17-.91-.26-1.37l1.74-3.93-2.28,1.45c-.9-3.73-2.16-7-3.91-8.7,0,0,18,7.2,6.14,26.27,0,0-.1-3.16-.55-7.33Z" style="fill:#fff"></path><path d="M402.51,196.11,400,190.36l.79,5.85-.9.1-3.47-5,.55,5.53A35,35,0,0,0,393,198a43.22,43.22,0,0,0-4.12,1.72l-1.51-5,.48,5.49c-1.32.66-2.6,1.37-3.84,2.11L383.4,198l-.26,4.88c-1.52.94-3,1.9-4.3,2.85l.68-7.73-1.75,8.51c-1.36,1-2.59,2-3.65,2.83l.25-5.37-1.85,6.72c-1.52,1.3-2.39,2.14-2.39,2.14C372.22,194,380,187.09,392.25,186s20,12,20,12S408.66,195.93,402.51,196.11Z" style="fill:#fff"></path><path d="M436,221.62l-1.51,5.52c-.43-1.43-1-3.27-1.79-5.32l1.58-8.13L432,220a62.93,62.93,0,0,0-4.29-8.81l2.13-5.56-3.09,4c-.5-.78-1-1.53-1.58-2.26l1.24-3.5-1.72,2.88q-.57-.72-1.17-1.38l1.53-4.69-2.18,4a21.45,21.45,0,0,0-3.66-3.07l2.34-5.7s-1.53,2.28-3.39,5.08a13.34,13.34,0,0,0-5.95-1.7,20.23,20.23,0,0,1,10.91-7.09c6.86-1.52,20.4,11.65,12.2,38,0,0-.15-.63-.44-1.69Z" style="fill:#fff"></path><path d="M428.72,168.83l.89,3.48a8.46,8.46,0,0,0-1.26.09l-1.06-4.52.59,4.61a9.69,9.69,0,0,0-2.56.95l-1.47-6.11.65,6.59c-.32.2-.65.42-1,.67l-1.74-5.76L423,175a23.93,23.93,0,0,0-4.4,5.06v-8.26L416.81,183a66.39,66.39,0,0,0-4.58,10.59s1-29.94,8.43-32.8,10.68,11.82,10.68,11.82a4,4,0,0,0-1-.23Z" style="fill:#fff"></path><path d="M416,201.33,415,207l-1.77-5.62L410,205.39l-.86-4.06-3.57,2.59s.93-7.2,3.32-10.34S417.54,193.21,416,201.33Z" style="fill:#fff"></path></g><path d="M118.7,383.58s-5.24-81.51-32.18-187.67L92,191.78s23.62,38.36,47.32,187Z" style="fill:#4F719D"></path><g style="opacity:0.5"><path d="M118.7,383.58s-5.24-81.51-32.18-187.67L92,191.78s23.62,38.36,47.32,187Z" style="fill:#fff"></path></g><path d="M79.58,171.19c-12.67-7.06-29.67,6.85-30.7,26.74a38.43,38.43,0,0,1,5.36-3c.58-5,1.17-9.48,1.17-9.48v9c1-.46,2.17-.91,3.4-1.35l.49-4.85.72,4.45a41.91,41.91,0,0,1,5.14-1.3l1.24-14.14,2.17,13.65a35.38,35.38,0,0,1,5.38-.15l.7-9.61.71,9.7a33,33,0,0,1,4.61.71l.64-14.3s.52,8,1.1,14.74a37.2,37.2,0,0,1,12.18,6v-1.75S91.14,177.62,79.58,171.19Z" style="fill:#4F719D"></path><path d="M95.84,163.64c8.82-11.51,30-5.5,38.8,12.34a38.21,38.21,0,0,0-6.13-.65c-2.53-4.39-4.84-8.24-4.84-8.24l3.56,8.21c-1.13,0-2.36,0-3.66.12l-2.38-4.26,1.11,4.36a44,44,0,0,0-5.23.85l-6.77-12.48,3.44,13.39a38.31,38.31,0,0,0-5,2l-4.46-8.54,3.2,9.18a33.69,33.69,0,0,0-3.94,2.5l-6.27-12.88s2.69,7.53,4.85,14a37.35,37.35,0,0,0-8.78,10.38l-.7-1.61S87.78,174.15,95.84,163.64Z" style="fill:#4F719D"></path><path d="M107,188.62c-10.31-8.71-17,0-17,0a21.11,21.11,0,0,1,10.1,5.51l1.18-1.79v2.91c.73.72,1.43,1.48,2.11,2.26l1.84-5.17-.45,6.86c1,1.24,1.9,2.51,2.76,3.78l.61-5,.4,6.61c.91,1.43,1.74,2.84,2.48,4.16l.39-9.2,1,11.8c1.8,3.53,2.79,6,2.79,6S117.26,197.32,107,188.62Z" style="fill:#4F719D"></path><path d="M82.55,212.7l2.08,1c.18-1.55.39-3.18.66-4.84l-1.53-2.37,1.77.92c.1-.55.2-1.1.31-1.64L83.76,201l2.73,1.74c1.09-4.47,2.6-8.44,4.7-10.44,0,0-21.58,8.65-7.38,31.56,0,0,.13-3.8.66-8.81Z" style="fill:#4F719D"></path><path d="M102.87,191.66l3-6.91-1,7,1.08.12,4.16-6-.65,6.64a40.6,40.6,0,0,1,4.72,1.37,52.81,52.81,0,0,1,5,2.06l1.81-6-.57,6.59c1.58.79,3.12,1.65,4.61,2.54l.74-5.21.32,5.85c1.82,1.13,3.56,2.29,5.15,3.43l-.8-9.28,2.09,10.22c1.65,1.21,3.12,2.37,4.39,3.4l-.3-6.46,2.22,8.07c1.83,1.57,2.88,2.58,2.88,2.58-2.52-22.52-11.91-30.86-26.57-32.23s-24,14.42-24,14.42S95.48,191.45,102.87,191.66Z" style="fill:#4F719D"></path><path d="M62.62,222.31l1.82,6.63c.51-1.72,1.22-3.92,2.14-6.39l-1.89-9.77,2.73,7.61a74.84,74.84,0,0,1,5.15-10.58L70,203.13,73.72,208c.61-.93,1.24-1.83,1.9-2.71L74.14,201l2.06,3.46c.46-.57.93-1.12,1.41-1.66l-1.84-5.63L78.39,202a25.67,25.67,0,0,1,4.39-3.68L80,191.47l4.07,6.1a16.11,16.11,0,0,1,7.15-2A24.3,24.3,0,0,0,78.09,187c-8.25-1.84-24.51,14-14.66,45.59,0,0,.17-.75.53-2Z" style="fill:#4F719D"></path><path d="M71.39,158.9l-1.08,4.18a9.49,9.49,0,0,1,1.52.1l1.27-5.43-.71,5.53a11.76,11.76,0,0,1,3.07,1.15l1.77-7.34L76.45,165a13.19,13.19,0,0,1,1.17.82l2.09-6.92-1.41,7.45a28.36,28.36,0,0,1,5.28,6.08v-9.92l2.11,13.39a80.81,80.81,0,0,1,5.5,12.72s-1.19-36-10.13-39.4-12.82,14.2-12.82,14.2a5.57,5.57,0,0,1,1.16-.28Z" style="fill:#4F719D"></path><path d="M86.62,197.93l1.26,6.75L90,197.93l3.89,4.89,1-4.89,4.3,3.11s-1.12-8.64-4-12.42S84.81,188.18,86.62,197.93Z" style="fill:#4F719D"></path><g style="opacity:0.30000000000000004"><path d="M79.58,171.19c-12.67-7.06-29.67,6.85-30.7,26.74a38.43,38.43,0,0,1,5.36-3c.58-5,1.17-9.48,1.17-9.48v9c1-.46,2.17-.91,3.4-1.35l.49-4.85.72,4.45a41.91,41.91,0,0,1,5.14-1.3l1.24-14.14,2.17,13.65a35.38,35.38,0,0,1,5.38-.15l.7-9.61.71,9.7a33,33,0,0,1,4.61.71l.64-14.3s.52,8,1.1,14.74a37.2,37.2,0,0,1,12.18,6v-1.75S91.14,177.62,79.58,171.19Z" style="fill:#fff"></path><path d="M95.84,163.64c8.82-11.51,30-5.5,38.8,12.34a38.21,38.21,0,0,0-6.13-.65c-2.53-4.39-4.84-8.24-4.84-8.24l3.56,8.21c-1.13,0-2.36,0-3.66.12l-2.38-4.26,1.11,4.36a44,44,0,0,0-5.23.85l-6.77-12.48,3.44,13.39a38.31,38.31,0,0,0-5,2l-4.46-8.54,3.2,9.18a33.69,33.69,0,0,0-3.94,2.5l-6.27-12.88s2.69,7.53,4.85,14a37.35,37.35,0,0,0-8.78,10.38l-.7-1.61S87.78,174.15,95.84,163.64Z" style="fill:#fff"></path><path d="M107,188.62c-10.31-8.71-17,0-17,0a21.11,21.11,0,0,1,10.1,5.51l1.18-1.79v2.91c.73.72,1.43,1.48,2.11,2.26l1.84-5.17-.45,6.86c1,1.24,1.9,2.51,2.76,3.78l.61-5,.4,6.61c.91,1.43,1.74,2.84,2.48,4.16l.39-9.2,1,11.8c1.8,3.53,2.79,6,2.79,6S117.26,197.32,107,188.62Z" style="fill:#fff"></path><path d="M82.55,212.7l2.08,1c.18-1.55.39-3.18.66-4.84l-1.53-2.37,1.77.92c.1-.55.2-1.1.31-1.64L83.76,201l2.73,1.74c1.09-4.47,2.6-8.44,4.7-10.44,0,0-21.58,8.65-7.38,31.56,0,0,.13-3.8.66-8.81Z" style="fill:#fff"></path><path d="M102.87,191.66l3-6.91-1,7,1.08.12,4.16-6-.65,6.64a40.6,40.6,0,0,1,4.72,1.37,52.81,52.81,0,0,1,5,2.06l1.81-6-.57,6.59c1.58.79,3.12,1.65,4.61,2.54l.74-5.21.32,5.85c1.82,1.13,3.56,2.29,5.15,3.43l-.8-9.28,2.09,10.22c1.65,1.21,3.12,2.37,4.39,3.4l-.3-6.46,2.22,8.07c1.83,1.57,2.88,2.58,2.88,2.58-2.52-22.52-11.91-30.86-26.57-32.23s-24,14.42-24,14.42S95.48,191.45,102.87,191.66Z" style="fill:#fff"></path><path d="M62.62,222.31l1.82,6.63c.51-1.72,1.22-3.92,2.14-6.39l-1.89-9.77,2.73,7.61a74.84,74.84,0,0,1,5.15-10.58L70,203.13,73.72,208c.61-.93,1.24-1.83,1.9-2.71L74.14,201l2.06,3.46c.46-.57.93-1.12,1.41-1.66l-1.84-5.63L78.39,202a25.67,25.67,0,0,1,4.39-3.68L80,191.47l4.07,6.1a16.11,16.11,0,0,1,7.15-2A24.3,24.3,0,0,0,78.09,187c-8.25-1.84-24.51,14-14.66,45.59,0,0,.17-.75.53-2Z" style="fill:#fff"></path><path d="M71.39,158.9l-1.08,4.18a9.49,9.49,0,0,1,1.52.1l1.27-5.43-.71,5.53a11.76,11.76,0,0,1,3.07,1.15l1.77-7.34L76.45,165a13.19,13.19,0,0,1,1.17.82l2.09-6.92-1.41,7.45a28.36,28.36,0,0,1,5.28,6.08v-9.92l2.11,13.39a80.81,80.81,0,0,1,5.5,12.72s-1.19-36-10.13-39.4-12.82,14.2-12.82,14.2a5.57,5.57,0,0,1,1.16-.28Z" style="fill:#fff"></path><path d="M86.62,197.93l1.26,6.75L90,197.93l3.89,4.89,1-4.89,4.3,3.11s-1.12-8.64-4-12.42S84.81,188.18,86.62,197.93Z" style="fill:#fff"></path></g><path d="M448,397.28s-73.44-51.95-193.76-51.95S56.58,395.75,56.58,395.75Z" style="fill:#4F719D"></path><path d="M448,397.28s-73.44-51.95-193.76-51.95S56.58,395.75,56.58,395.75Z" style="fill:#fff;opacity:0.7000000000000001;isolation:isolate"></path><path d="M137.42,371.48s-16.19-115.65,22.07-235l-5.89-4.59S109,222.07,114.7,374.62Z" style="fill:#4F719D"></path><g style="opacity:0.6000000000000001;isolation:isolate"><path d="M137.42,371.48s-16.19-115.65,22.07-235l-5.89-4.59S109,222.07,114.7,374.62Z" style="fill:#fff"></path></g><path d="M169.9,105.14c13.86-9,34.24,5.52,36.94,28a43.12,43.12,0,0,0-6.33-3c-1-5.67-2-10.69-2-10.69l.68,10.17c-1.21-.44-2.54-.87-4-1.27l-.93-5.47-.47,5.1a50.32,50.32,0,0,0-5.94-1.08l-2.5-16-1.42,15.68a42.71,42.71,0,0,0-6.13.25L176.25,116l-.06,11.08a40.23,40.23,0,0,0-5.19,1.18L169.19,112s0,9.11-.13,16.84a42.39,42.39,0,0,0-13.38,7.78l-.14-2S157.24,113.34,169.9,105.14Z" style="fill:#4F719D"></path><path d="M150.84,97.81c-10.91-12.41-34.46-4-43.16,17a42.17,42.17,0,0,1,6.92-1.22c2.54-5.17,4.87-9.73,4.87-9.73l-3.42,9.6c1.29-.09,2.68-.15,4.17-.14l2.38-5-.93,5a48.44,48.44,0,0,1,6,.57l6.74-14.71-2.89,15.48a41.68,41.68,0,0,1,5.84,1.89l4.41-10-2.93,10.69a38.75,38.75,0,0,1,4.67,2.53l6.14-15.12s-2.48,8.77-4.44,16.24A42.64,42.64,0,0,1,156,132l.67-1.88S160.8,109.13,150.84,97.81Z" style="fill:#4F719D"></path><path d="M140.12,127.05c11-10.69,19.27-1.3,19.27-1.3-4.14,1-7.83,3.68-11.06,7l-1.48-1.94.23,3.31c-.78.88-1.52,1.79-2.23,2.74l-2.49-5.75,1,7.77c-1,1.48-2,3-2.85,4.51l-1.08-5.69.05,7.53c-.93,1.7-1.76,3.36-2.49,4.93l-1.15-10.43-.22,13.48c-1.78,4.15-2.71,7.07-2.71,7.07S129.07,137.73,140.12,127.05Z" style="fill:#4F719D"></path><path d="M169.7,152.55l-2.28,1.3c-.33-1.75-.7-3.59-1.13-5.45l1.56-2.82-1.95,1.19c-.15-.62-.31-1.24-.47-1.85l2-5.53-3,2.19c-1.57-5-3.6-9.4-6.14-11.52,0,0,25.19,8.18,10.8,35.31,0,0-.43-4.31-1.42-10Z" style="fill:#4F719D"></path><path d="M145,130.19l-4-7.62,1.62,7.92-1.22.22-5.2-6.54,1.25,7.51a45.1,45.1,0,0,0-5.25,1.91,59.21,59.21,0,0,0-5.47,2.72l-2.52-6.66,1.15,7.45c-1.73,1-3.42,2.11-5,3.24l-1.24-5.87.08,6.68c-2,1.42-3.86,2.88-5.59,4.3l.21-10.62-1.61,11.78c-1.77,1.5-3.36,2.93-4.72,4.2l-.16-7.37-1.9,9.35c-2,1.92-3.07,3.14-3.07,3.14,1.14-25.78,11.17-36,27.73-38.66s28.39,14.55,28.39,14.55S153.37,129.39,145,130.19Z" style="fill:#4F719D"></path><path d="M193.08,161.94l-1.55,7.68c-.71-1.92-1.69-4.37-2.93-7.1L190,151.27l-2.52,8.86a87.41,87.41,0,0,0-6.66-11.63l2.39-7.79-3.85,5.77c-.76-1-1.54-2-2.36-2.93l1.36-4.9-2.08,4.09c-.57-.61-1.14-1.2-1.73-1.78l1.66-6.54-2.61,5.65a29.16,29.16,0,0,0-5.28-3.85l2.67-8-4.16,7.23a18.37,18.37,0,0,0-8.27-1.77s5-8,14.23-10.68,28.94,14,20.16,50.7c0,0-.26-.84-.76-2.26Z" style="fill:#4F719D"></path><path d="M178.26,90.54l1.55,4.67a9.73,9.73,0,0,0-1.72.23l-1.87-6.07,1.24,6.23a13.28,13.28,0,0,0-3.41,1.54l-2.56-8.21L173,97.87c-.41.3-.83.64-1.26,1l-2.91-7.7L171,99.54a32.27,32.27,0,0,0-5.54,7.32l-.76-11.28L163.31,111A91,91,0,0,0,158,125.84s-1.41-41,8.48-45.56,15.67,15.16,15.67,15.16a5.49,5.49,0,0,0-1.35-.22Z" style="fill:#4F719D"></path><path d="M164,136.08l-.92,7.76-2.93-7.5-4,5.84-1.54-5.47-4.65,3.86s.62-9.9,3.59-14.42S165.25,124.86,164,136.08Z" style="fill:#4F719D"></path><g style="opacity:0.4"><path d="M169.9,105.14c13.86-9,34.24,5.52,36.94,28a43.12,43.12,0,0,0-6.33-3c-1-5.67-2-10.69-2-10.69l.68,10.17c-1.21-.44-2.54-.87-4-1.27l-.93-5.47-.47,5.1a50.32,50.32,0,0,0-5.94-1.08l-2.5-16-1.42,15.68a42.71,42.71,0,0,0-6.13.25L176.25,116l-.06,11.08a40.23,40.23,0,0,0-5.19,1.18L169.19,112s0,9.11-.13,16.84a42.39,42.39,0,0,0-13.38,7.78l-.14-2S157.24,113.34,169.9,105.14Z" style="fill:#fff"></path><path d="M150.84,97.81c-10.91-12.41-34.46-4-43.16,17a42.17,42.17,0,0,1,6.92-1.22c2.54-5.17,4.87-9.73,4.87-9.73l-3.42,9.6c1.29-.09,2.68-.15,4.17-.14l2.38-5-.93,5a48.44,48.44,0,0,1,6,.57l6.74-14.71-2.89,15.48a41.68,41.68,0,0,1,5.84,1.89l4.41-10-2.93,10.69a38.75,38.75,0,0,1,4.67,2.53l6.14-15.12s-2.48,8.77-4.44,16.24A42.64,42.64,0,0,1,156,132l.67-1.88S160.8,109.13,150.84,97.81Z" style="fill:#fff"></path><path d="M140.12,127.05c11-10.69,19.27-1.3,19.27-1.3-4.14,1-7.83,3.68-11.06,7l-1.48-1.94.23,3.31c-.78.88-1.52,1.79-2.23,2.74l-2.49-5.75,1,7.77c-1,1.48-2,3-2.85,4.51l-1.08-5.69.05,7.53c-.93,1.7-1.76,3.36-2.49,4.93l-1.15-10.43-.22,13.48c-1.78,4.15-2.71,7.07-2.71,7.07S129.07,137.73,140.12,127.05Z" style="fill:#fff"></path><path d="M169.7,152.55l-2.28,1.3c-.33-1.75-.7-3.59-1.13-5.45l1.56-2.82-1.95,1.19c-.15-.62-.31-1.24-.47-1.85l2-5.53-3,2.19c-1.57-5-3.6-9.4-6.14-11.52,0,0,25.19,8.18,10.8,35.31,0,0-.43-4.31-1.42-10Z" style="fill:#fff"></path><path d="M145,130.19l-4-7.62,1.62,7.92-1.22.22-5.2-6.54,1.25,7.51a45.1,45.1,0,0,0-5.25,1.91,59.21,59.21,0,0,0-5.47,2.72l-2.52-6.66,1.15,7.45c-1.73,1-3.42,2.11-5,3.24l-1.24-5.87.08,6.68c-2,1.42-3.86,2.88-5.59,4.3l.21-10.62-1.61,11.78c-1.77,1.5-3.36,2.93-4.72,4.2l-.16-7.37-1.9,9.35c-2,1.92-3.07,3.14-3.07,3.14,1.14-25.78,11.17-36,27.73-38.66s28.39,14.55,28.39,14.55S153.37,129.39,145,130.19Z" style="fill:#fff"></path><path d="M193.08,161.94l-1.55,7.68c-.71-1.92-1.69-4.37-2.93-7.1L190,151.27l-2.52,8.86a87.41,87.41,0,0,0-6.66-11.63l2.39-7.79-3.85,5.77c-.76-1-1.54-2-2.36-2.93l1.36-4.9-2.08,4.09c-.57-.61-1.14-1.2-1.73-1.78l1.66-6.54-2.61,5.65a29.16,29.16,0,0,0-5.28-3.85l2.67-8-4.16,7.23a18.37,18.37,0,0,0-8.27-1.77s5-8,14.23-10.68,28.94,14,20.16,50.7c0,0-.26-.84-.76-2.26Z" style="fill:#fff"></path><path d="M178.26,90.54l1.55,4.67a9.73,9.73,0,0,0-1.72.23l-1.87-6.07,1.24,6.23a13.28,13.28,0,0,0-3.41,1.54l-2.56-8.21L173,97.87c-.41.3-.83.64-1.26,1l-2.91-7.7L171,99.54a32.27,32.27,0,0,0-5.54,7.32l-.76-11.28L163.31,111A91,91,0,0,0,158,125.84s-1.41-41,8.48-45.56,15.67,15.16,15.67,15.16a5.49,5.49,0,0,0-1.35-.22Z" style="fill:#fff"></path><path d="M164,136.08l-.92,7.76-2.93-7.5-4,5.84-1.54-5.47-4.65,3.86s.62-9.9,3.59-14.42S165.25,124.86,164,136.08Z" style="fill:#fff"></path></g></g><g id="freepik--Car--inject-469"><path d="M266.26,371.78S294.8,280.18,370,218.24C370,218.24,344.82,297.63,266.26,371.78Z" style="fill:#4F719D"></path><path d="M369.94,218.25v0c-.55,1.71-26,80.17-103.68,153.51C266.26,371.78,294.79,280.19,369.94,218.25Z" style="fill:#fff;opacity:0.6000000000000001;isolation:isolate"></path><path d="M369.94,218.27c-.55,1.71-26,80.17-103.68,153.51C314.42,325.75,369,220.19,369.94,218.27Z" style="opacity:0.2;isolation:isolate"></path><path d="M352.28,239.39s-6.81-8.93-8.81-17.31c0,0-6.62,15.23-2.77,28.52A20.13,20.13,0,0,0,352.28,239.39Z" style="fill:#4F719D"></path><path d="M352.28,239.39s-6.81-8.93-8.81-17.31c0,0-6.62,15.23-2.77,28.52A20.13,20.13,0,0,0,352.28,239.39Z" style="fill:#fff;opacity:0.4;isolation:isolate"></path><path d="M299.72,294.4l-11-2.3,6.87-32.89,11,2.3Zm-7.45-4.62,5.13,1.07,5.64-27-5.12-1.07Z" style="fill:#263238"></path><path d="M280.58,346.65l-1.28-.27a2.62,2.62,0,1,0-1.07,5.12l1.28.27a2.62,2.62,0,1,0,1.07-5.12Z" style="fill:#263238"></path><path d="M282.67,349.71a2.67,2.67,0,1,1-2.07-3.16A2.68,2.68,0,0,1,282.67,349.71Z" style="fill:#fff;opacity:0.1;isolation:isolate"></path><path d="M287.63,348.12l-1.28-.27a2.62,2.62,0,1,0-1.07,5.13l1.28.26a2.62,2.62,0,1,0,1.07-5.12Z" style="fill:#263238"></path><path d="M289.71,351.18a2.67,2.67,0,0,1-5.22-1.09,2.67,2.67,0,1,1,5.22,1.09Z" style="fill:#fff;opacity:0.2;isolation:isolate"></path><path d="M322.39,299.11l-9.47,45.33c-.95,4.51-5.46,7.82-10,6.88l-22.59-4.72,13-62.16,22.59,4.73a8.39,8.39,0,0,1,6.45,9.94Z" style="fill:#4F719D"></path><rect x="283.4" y="283.3" width="13.74" height="65.56" rx="2.69" transform="translate(70.8 -52.7) rotate(11.81)" style="fill:#263238"></rect><rect x="283.45" y="282.78" width="8.65" height="65.56" rx="2.69" transform="translate(70.65 -52.2) rotate(11.81)" style="fill:#fff;opacity:0.2;isolation:isolate"></rect><path d="M322.39,299.11l-9.47,45.33c-.95,4.51-5.46,7.82-10,6.88l-9.07-1.9a6.48,6.48,0,0,1-.16-2.71l10.57-50.61a4.75,4.75,0,0,1,5.65-3.51l12.29,2.57A8.41,8.41,0,0,1,322.39,299.11Z" style="opacity:0.2;isolation:isolate"></path><rect x="284.43" y="284.44" width="5.9" height="62.16" rx="1.87" transform="translate(70.62 -52.11) rotate(11.8)" style="opacity:0.2;isolation:isolate"></rect><path d="M304.27,263.81l-7.61-1.59a1.73,1.73,0,0,1-1.33-2h0a1.73,1.73,0,0,1,2-1.33l7.6,1.59a1.74,1.74,0,0,1,1.34,2h0A1.73,1.73,0,0,1,304.27,263.81Z" style="fill:#263238"></path><path d="M304.27,263.81l-7.61-1.59a1.73,1.73,0,0,1-1.33-2h0a1.73,1.73,0,0,1,2-1.33l7.6,1.59a1.74,1.74,0,0,1,1.34,2h0A1.73,1.73,0,0,1,304.27,263.81Z" style="fill:#fff;opacity:0.2;isolation:isolate"></path><path d="M304.31,263.82h0a1.68,1.68,0,0,1-1.29-2l0-.08a1.66,1.66,0,0,1,2-1.3h0a1.67,1.67,0,0,1,1.29,2v.09A1.69,1.69,0,0,1,304.31,263.82Z" style="opacity:0.2;isolation:isolate"></path><path d="M223.39,257.45s-2.29,3-5,6.06c-2.85,3.25-6.16,6.56-7.69,6.44-3-.24-12.58-3.77-12.58-3.77l-4.33,1.63s-4.05-3.19-4.07-4.32,6-2.4,7.14-2.4,2.77,1.79,2.77,1.79,9.66,2,10.58,1.74c5-1.21,9.9-15,12.66-15l.21,3.18Z" style="fill:#e4897b"></path><path d="M223.39,257.45s-2.29,3-5,6.06c-.56-4.42,4-9.9,4.69-10.72Z" style="opacity:0.2;isolation:isolate"></path><path d="M229,234.37s-2-5.21,4.52-7.4,8.73-2,10.54,1,.83,5.36,4.68,5.14,7.17-2.09,9.77.23,2,5.52,5.07,2.49,3.36-2.72,5.34-1.39c0,0-1.88,1-1.78,2.08s2.77.84,1.78,2.56-3.78,5.09-7.78,3.21-5.38-.3-5.38-.3a5.82,5.82,0,0,1,4.8,1.63c1.63,1.85,2.72,1.42,5.39.78a5.23,5.23,0,0,1-6.67,2.72c-4.73-1.67-5.33-1.27-10.36-.09s-13,.6-17.06-3.16S229,234.37,229,234.37Z" style="fill:#263238"></path><polygon points="253.03 374.68 255.32 371.68 251.44 367.93 247.91 364.53 244.59 367.63 249.05 371.36 253.03 374.68" style="fill:#e4897b"></polygon><path d="M255.46,370.76c-.34-.24-3.18,4-3.18,4s.63,4.44-.65,7.3,1.21,2.62,3.28-.09,3.65-4.79,5.13-6.71S259,373.3,255.46,370.76Z" style="fill:#263238"></path><path d="M251.22,378a.55.55,0,0,1-.42-.24.53.53,0,0,1-.1-.43,2.06,2.06,0,0,1,.59-1c-.43.19-.86.32-1.09.17a.47.47,0,0,1-.13-.53.79.79,0,0,1,.38-.54,3,3,0,0,1,1.91,0l0,0h0l0,0h0l0,0h0v.05c-.08.37-.5,2.21-1.15,2.36Zm.88-2.05c-.45.38-1.08,1-1.14,1.42a.28.28,0,0,0,.06.22c.13.17.2.15.23.14C251.55,377.66,251.9,376.74,252.1,376Zm-.89-.39a1.23,1.23,0,0,0-.62.13.52.52,0,0,0-.26.36c0,.07,0,.2,0,.24s.95-.21,1.63-.63A3.44,3.44,0,0,0,251.21,375.56Z" style="fill:#4F719D"></path><polygon points="249.05 371.36 251.44 367.93 247.91 364.53 244.59 367.63 249.05 371.36" style="opacity:0.2;isolation:isolate"></polygon><polygon points="230.08 379.43 233.86 379.43 234.48 374.17 235.04 369.35 230.56 368.62 230.3 374.34 230.08 379.43" style="fill:#e4897b"></polygon><path d="M234.66,379.18c0-.41-5.12-.09-5.12-.09s-3.14,3.2-6.2,3.92-1.35,2.55,2.07,2.55h8.45C236.28,385.56,234.77,383.5,234.66,379.18Z" style="fill:#263238"></path><path d="M226.85,380.4a.7.7,0,0,1-.45-.12.49.49,0,0,1-.12-.55.56.56,0,0,1,.27-.34,2.09,2.09,0,0,1,1.15-.13c-.42-.22-.78-.49-.8-.76s.11-.32.34-.43a.8.8,0,0,1,.66,0c.69.29,1.12,1.48,1.14,1.54a.07.07,0,0,1,0,.05h0s0,0,0,0h0l0,0h0s0,0,0,0A6.33,6.33,0,0,1,226.85,380.4Zm.44-.89a1.26,1.26,0,0,0-.6.11.32.32,0,0,0-.15.18c0,.2,0,.25,0,.27.24.2,1.18-.08,1.93-.4A5.89,5.89,0,0,0,227.29,379.51Zm.3-1.25a.53.53,0,0,0-.24.06c-.07,0-.18.1-.18.17,0,.23.75.62,1.5.91a2.24,2.24,0,0,0-.87-1.1A.52.52,0,0,0,227.59,378.26Z" style="fill:#4F719D"></path><polygon points="230.3 374.46 234.48 374.27 235.04 369.4 230.56 368.64 230.3 374.46" style="opacity:0.2;isolation:isolate"></polygon><path d="M220.66,288.61S209.51,315,207.75,326.55s37.87,42.58,37.87,42.58l4-4.31s-29.47-30.3-29.47-35.51,11.49-29,11.49-29S232.8,290.69,220.66,288.61Z" style="fill:#263238"></path><path d="M228.73,354.71c4.05,3.72,8,7.09,11,9.63,3.53,3,5.88,4.79,5.88,4.79l4-4.31s-4-4.16-9.14-9.66c-4-4.33-8.66-9.49-12.51-14.11-4.45-5.36-7.82-10-7.82-11.74,0-2.75,3.2-10.66,6.22-17.54,2.71-6.16,5.27-11.48,5.27-11.48a9.69,9.69,0,0,0-.31-3.26c-.78-3-3.23-7.13-10.72-8.42,0,0-11.15,26.37-12.91,37.93C206.79,332.87,218.2,345,228.73,354.71Z" style="fill:#fff;opacity:0.4;isolation:isolate"></path><path d="M228,341.05l.71,13.66c4.05,3.72,8,7.09,11,9.63a32.49,32.49,0,0,0,.79-9.18C236.52,350.83,231.87,345.67,228,341.05Z" style="opacity:0.2;isolation:isolate"></path><path d="M226.42,311.77c2.71-6.16,5.27-11.48,5.27-11.48a9.69,9.69,0,0,0-.31-3.26,3.93,3.93,0,0,0-1.27-.53S226.81,301.68,226.42,311.77Z" style="opacity:0.2;isolation:isolate"></path><path d="M230,296.5l-.73,37.12v38h6.43c15.1-72,4.75-90,4.75-90h0l0-.08c-2.43-5.39-18.34-1.42-18.34-1.42-1.14,4.47-1.87,13.54-1.87,13.54Z" style="fill:#263238"></path><path d="M230,296.5l-.73,37.12v38h6.43c15.1-72,4.75-90,4.75-90h0l0-.08c-2.43-5.39-18.34-1.42-18.34-1.42-1.14,4.47-1.87,13.54-1.87,13.54Z" style="fill:#fff;opacity:0.4;isolation:isolate"></path><polygon points="240.38 278.81 240.38 281.5 221.97 280.09 221.97 276.9 240.38 278.81" style="fill:#263238"></polygon><rect x="234.19" y="277.69" width="0.91" height="4.66" transform="translate(454.71 571.63) rotate(-177.08)" style="fill:#263238"></rect><rect x="226.18" y="277.73" width="4.04" height="3.07" transform="translate(430.59 577.77) rotate(-174.88)" style="fill:#fff"></rect><rect x="222.94" y="276.46" width="0.91" height="4.66" transform="translate(432.29 568.59) rotate(-177.08)" style="fill:#263238"></rect><rect x="234.19" y="277.69" width="0.91" height="4.66" transform="translate(454.71 571.63) rotate(-177.08)" style="fill:#fff;opacity:0.4;isolation:isolate"></rect><rect x="222.94" y="276.46" width="0.91" height="4.66" transform="translate(432.29 568.59) rotate(-177.08)" style="fill:#fff;opacity:0.4;isolation:isolate"></rect><path d="M222,277.22l18.42,1.6c.44-6.85.88-11.27,4.93-23.47.35-1.07.73-2.2,1.15-3.4a55.55,55.55,0,0,0-7.64-1.84,57.41,57.41,0,0,0-8.27-.87c-3.59,0-7.7.37-7.7.37s-.59.14-1,3.94C221.58,257.12,221.26,264.25,222,277.22Z" style="fill:#4F719D"></path><path d="M232.1,253.31c4.54-.59,5.9-2.52,5.9-2.52-2.88-2.72-.49-7.43-.49-7.43l-5.46,1a16.69,16.69,0,0,1,.21,2.3c0,3.32-1.46,3.35-1.46,3.35C229.85,251.82,232.1,253.31,232.1,253.31Z" style="fill:#e4897b"></path><path d="M232.05,244.38a16.69,16.69,0,0,1,.21,2.3c2.64-.61,5.25-3.32,5.25-3.32Z" style="opacity:0.2;isolation:isolate"></path><path d="M236.92,229.26c-4.63-1.1-6.71,1-8.18,5.72-1.83,5.86-1.51,10.4,4.58,10.5C241.58,245.62,244.61,231.08,236.92,229.26Z" style="fill:#e4897b"></path><path d="M231.8,235.43A10.46,10.46,0,0,1,230,237a1.29,1.29,0,0,0,1.09.81Z" style="fill:#de5753"></path><path d="M234.72,235.72c-.1.38,0,.74.28.8s.53-.18.63-.56,0-.74-.27-.81S234.82,235.34,234.72,235.72Z" style="fill:#263238"></path><path d="M235.46,235.2l-.74-.54S235,235.46,235.46,235.2Z" style="fill:#263238"></path><path d="M230,234.41c-.1.38,0,.74.28.8s.53-.18.63-.56,0-.74-.27-.81S230.14,234,230,234.41Z" style="fill:#263238"></path><path d="M230.78,233.89l-.74-.54S230.27,234.15,230.78,233.89Z" style="fill:#263238"></path><path d="M237.37,234.07a.35.35,0,0,1-.33-.2,2.12,2.12,0,0,0-1.55-1,.35.35,0,0,1-.32-.4.37.37,0,0,1,.39-.32,2.84,2.84,0,0,1,2.13,1.38.37.37,0,0,1-.17.49A.4.4,0,0,1,237.37,234.07Z" style="fill:#263238"></path><path d="M232.21,231.9a.36.36,0,0,1-.2-.06,1.89,1.89,0,0,0-1.61,0,.36.36,0,0,1-.47-.21.37.37,0,0,1,.22-.47,2.58,2.58,0,0,1,2.26.1.37.37,0,0,1,.1.5A.35.35,0,0,1,232.21,231.9Z" style="fill:#263238"></path><path d="M231.34,239.24a12.27,12.27,0,0,1,.15,1.73l.31,0c1.38.19,2.08-.18,2.44-.65a1.82,1.82,0,0,0,.32-.78,2,2,0,0,0,0-.49,6.51,6.51,0,0,1-2.78.2C231.52,239.27,231.34,239.24,231.34,239.24Z" style="fill:#263238"></path><path d="M231.81,239.29l.06.51a4.12,4.12,0,0,0,2.69-.22,2,2,0,0,0,0-.49A6.51,6.51,0,0,1,231.81,239.29Z" style="fill:#fff"></path><path d="M231.8,241c1.38.19,2.08-.18,2.44-.65a4.44,4.44,0,0,0-1.57.1A1.64,1.64,0,0,0,231.8,241Z" style="fill:#de5753"></path><path d="M240.13,238.26s-1.26-4.32-.24-7.18c0,0-8.28-5.92-10.94,3.29,0,0,1.06-8.48,9.06-6.78s5.21,13.33.28,15.83C238.29,243.42,240.9,241,240.13,238.26Z" style="fill:#263238"></path><path d="M239.14,239.06a2.09,2.09,0,0,1,2.63-1.34c1.39.49,1.38,3.6-2.35,3.46C238.88,241.16,238.71,240.59,239.14,239.06Z" style="fill:#e4897b"></path><polygon points="236.46 370.7 228.56 369.54 229.22 372.7 235.74 373.58 236.46 370.7" style="fill:#4F719D"></polygon><polygon points="249.67 363.37 244.37 369.13 247.02 370.65 251.11 366.31 249.67 363.37" style="fill:#4F719D"></polygon><path d="M238.8,228.94c-.14.47,0,.94.33,1s.69-.22.83-.7,0-.94-.33-1S238.94,228.46,238.8,228.94Z" style="fill:#263238"></path><path d="M239.75,228.3l-.92-.71S239.1,228.62,239.75,228.3Z" style="fill:#263238"></path><path d="M232.89,227.13c-.14.48,0,.94.33,1s.69-.22.83-.7,0-.94-.33-1S233,226.65,232.89,227.13Z" style="fill:#263238"></path><path d="M233.84,226.49l-.92-.7S233.19,226.81,233.84,226.49Z" style="fill:#263238"></path><path d="M231.16,224.86a6.06,6.06,0,0,1,3.68,1h0a2.78,2.78,0,0,1,2.13.59,12.26,12.26,0,0,1,4.33,1.57l.69,5.95-.08.51-.87-5.43c-.58,1.1-1.92,2.72-3.47,2.14-2.05-.78-1.57-3-1.25-4-.36-.6-1.2-.81-1.44-.43-.31.88-1.23,2.89-3.44,2.41S231.16,224.86,231.16,224.86Z" style="fill:#4F719D"></path><path d="M231.16,224.86a6.06,6.06,0,0,1,3.68,1h0a2.78,2.78,0,0,1,2.13.59,12.26,12.26,0,0,1,4.33,1.57l.69,5.95-.08.51-.87-5.43c-.58,1.1-1.92,2.72-3.47,2.14-2.05-.78-1.57-3-1.25-4-.36-.6-1.2-.81-1.44-.43-.31.88-1.23,2.89-3.44,2.41S231.16,224.86,231.16,224.86Z" style="opacity:0.2;isolation:isolate"></path><g style="opacity:0.30000000000000004"><path d="M231.91,225.28l.39,3.61s-1.39.23-1.58-.88a6.64,6.64,0,0,1,.55-2.83A1.77,1.77,0,0,1,231.91,225.28Z" style="fill:#fff"></path><path d="M232.22,225.3l.38,3.63s.62-.09.66-.31l-.3-3.1S232.44,225.35,232.22,225.3Z" style="fill:#fff"></path><path d="M237.72,227.08l.39,3.6s-1.39.23-1.58-.88a6.52,6.52,0,0,1,.55-2.83A1.88,1.88,0,0,1,237.72,227.08Z" style="fill:#fff"></path><path d="M238,227.09l.37,3.64s.62-.09.67-.31l-.3-3.11Z" style="fill:#fff"></path></g><path d="M246.49,252c-.42,1.2-.8,2.33-1.15,3.4-1.08,3.27-1.91,6-2.55,8.32a66,66,0,0,0-2.38,15.15L222,277.22c-.45-7.93-.5-13.67-.39-17.76.06-2.6.19-4.52.32-5.91.37-3.8,1-3.94,1-3.94s1.09-.11,2.63-.2l1.45-.08c1.15-.06,2.41-.1,3.62-.09a57.41,57.41,0,0,1,8.27.87c1,.17,2.07.37,3.09.62.69.14,1.37.31,2.05.5C244.83,251.45,245.66,251.69,246.49,252Z" style="opacity:0.30000000000000004;isolation:isolate"></path><path d="M241.94,250.73c-2.45,3-8.31,9.31-13,7.79-4.4-1.43-3.07-6.49-2-9.19,1.15-.06,2.41-.1,3.62-.09a57.41,57.41,0,0,1,8.27.87C239.89,250.28,240.92,250.48,241.94,250.73Z" style="fill:#e4897b"></path><path d="M246.49,252c-.42,1.2-.8,2.33-1.15,3.4-1.08,3.27-1.91,6-2.55,8.32-2.27-4,0-9.88,1.2-12.44C244.83,251.45,245.66,251.69,246.49,252Z" style="fill:#e4897b"></path><path d="M225.51,249.41c-.78,2.13-2.54,7-3.91,10,.06-2.6.19-4.52.32-5.91.37-3.8,1-3.94,1-3.94S224,249.5,225.51,249.41Z" style="fill:#e4897b"></path><path d="M246.49,252c3.09.93,12.19,2.08,14,1.36s15.33-12.12,15.33-12.12l1.58,2.17s-13.05,14.42-14.73,14.79-18.59,0-18.59,0Z" style="fill:#e4897b"></path><path d="M244.41,258.22l2.31-1.48s-3.28-1.73-4.84,1.57a5.17,5.17,0,0,0,.81,5.72Z" style="opacity:0.2;isolation:isolate"></path><path d="M275.79,243.36s-1.19-2.47-.92-3.28,6.59-3.44,8.17-3.45,2,3.82,1,5.27S276.89,244.61,275.79,243.36Z" style="fill:#e4897b"></path><g id="freepik--group--inject-469"><path d="M236.92,297.77s-12.86,7.11-13.74,7.25-14.53-9.13-14.53-9.13l-3.1,3.43s12.4,10.15,15.32,11.45,16.6-4,16.6-4Z" style="fill:#ebb376"></path><path d="M236.92,297.77s-12.86,7.11-13.74,7.25-14.53-9.13-14.53-9.13l-3.1,3.43s12.4,10.15,15.32,11.45,16.6-4,16.6-4Z" style="opacity:0.2;isolation:isolate"></path><path d="M247.83,293.53a3.9,3.9,0,0,0,2.79-2.61,6.38,6.38,0,0,0,.16-2.56c0-.47-.13-.94-.22-1.42l7.36-5.76c-.89,3.7-1.91,10.49.59,13.09A8.86,8.86,0,0,1,247.83,293.53Z" style="fill:#ebb376"></path><path d="M256.28,284.77a6.37,6.37,0,0,1-5.66,6.15,6.38,6.38,0,0,0,.16-2.56Z" style="opacity:0.2;isolation:isolate"></path><path d="M245.3,269.22s-2.41,6.68.72,10,5.66-9.44,5.66-9.44Z" style="fill:#263238"></path><path d="M255.54,286.85a6.36,6.36,0,0,1-7.65,1,7.08,7.08,0,0,1-3.33-4,6.05,6.05,0,0,1-.2-.73c-1-4.56-.08-12,4.91-13.92a6.91,6.91,0,0,1,8.91,4,6.81,6.81,0,0,1,.43,3.19C258.18,281.37,258.17,284.34,255.54,286.85Z" style="fill:#ebb376"></path><path d="M250.92,277.55c0,.4-.24.73-.51.73s-.48-.35-.47-.76.24-.74.51-.73S250.92,277.13,250.92,277.55Z" style="fill:#263238"></path><path d="M246.27,277.42c0,.41-.24.74-.5.73s-.48-.35-.47-.75.24-.74.51-.73S246.28,277,246.27,277.42Z" style="fill:#263238"></path><path d="M247.74,277.67a14.76,14.76,0,0,1-2.05,3.46,2.41,2.41,0,0,0,2,.42Z" style="fill:#d58745"></path><path d="M252.4,276.08a.25.25,0,0,1-.23-.1,2,2,0,0,0-1.53-.85.24.24,0,0,1-.25-.23.25.25,0,0,1,.23-.25h0a2.39,2.39,0,0,1,1.93,1.05.23.23,0,0,1,0,.33h0Z" style="fill:#263238"></path><path d="M244.32,275.77a.22.22,0,0,1-.14,0,.24.24,0,0,1-.11-.32h0a2.41,2.41,0,0,1,1.78-1.31.24.24,0,0,1,.26.22h0a.25.25,0,0,1-.22.26h0a1.92,1.92,0,0,0-1.38,1.06A.25.25,0,0,1,244.32,275.77Z" style="fill:#263238"></path><path d="M255.07,270l-.43,2.2a1.65,1.65,0,0,1,.68,2.14c-.86,1.81,0,4.78,1.33,6,0,0,.11-.8.77-.56s.17,4.44-1.31,6.35c0,0,2.15-1.67,3.61-6,1.35-4,1.74-7.41,1-9.05Z" style="fill:#263238"></path><path d="M245.69,271s-2.07-2.44-.39-4.55,5.89-3.75,6.26-2.63-1,1.58,0,1.78,3.21-1,5.22-.79.51.79,1.58,1.58,2.66.79,3.78,1.52-.72,2-.72,2,2.57,0,2.57,1.69-2.9,1.38-2.9,1.38,1.75,1.27,1.37,2.35-6.75-.94-7.82-3.22C254.64,272.15,247.37,273.15,245.69,271Z" style="fill:#263238"></path><path d="M251.4,277.91c0,.49.19.92.52.95s.63-.35.67-.85-.19-.92-.52-.95S251.44,277.41,251.4,277.91Z" style="fill:#263238"></path><path d="M252.21,277.1l-1-.52S251.63,277.54,252.21,277.1Z" style="fill:#263238"></path><path d="M245.25,277.28c0,.49.19.92.52,1s.63-.35.68-.85-.2-.92-.53-.95S245.29,276.78,245.25,277.28Z" style="fill:#263238"></path><path d="M246.06,276.47l-1-.52S245.48,276.91,246.06,276.47Z" style="fill:#263238"></path><path d="M243.11,275.38a6.09,6.09,0,0,1,3.8.25h0a2.76,2.76,0,0,1,2.2.17,12.21,12.21,0,0,1,4.55.7l4.77,1.61,0,.52-4.84-1.06c-.36,1.19-1.36,3-3,2.76-2.17-.36-2.11-2.6-2-3.64-.48-.51-1.34-.56-1.5-.15-.14.93-.65,3.08-2.91,3S243.11,275.38,243.11,275.38Z" style="fill:#4F719D"></path><path d="M243.11,275.38a6.09,6.09,0,0,1,3.8.25h0a2.76,2.76,0,0,1,2.2.17,12.21,12.21,0,0,1,4.55.7l4.77,1.61,0,.52-4.84-1.06c-.36,1.19-1.36,3-3,2.76-2.17-.36-2.11-2.6-2-3.64-.48-.51-1.34-.56-1.5-.15-.14.93-.65,3.08-2.91,3S243.11,275.38,243.11,275.38Z" style="opacity:0.2;isolation:isolate"></path><g style="opacity:0.30000000000000004"><path d="M243.93,275.65l1.08,3.46s-1.32.5-1.72-.56a6.49,6.49,0,0,1,0-2.87A1.83,1.83,0,0,1,243.93,275.65Z" style="fill:#fff"></path><path d="M244.24,275.61l1.07,3.49s.59-.2.59-.43l-.89-3Z" style="fill:#fff"></path><path d="M250,276.29l1.07,3.46s-1.32.5-1.71-.56a6.49,6.49,0,0,1,0-2.87A1.83,1.83,0,0,1,250,276.29Z" style="fill:#fff"></path><path d="M250.28,276.25l1.07,3.49s.59-.2.59-.43l-.89-3Z" style="fill:#fff"></path></g><path d="M260.7,280.53a4.83,4.83,0,0,1-2.81,2.36c-1.61.49-2.46-.94-2-2.49.38-1.36,1.66-3.32,3.3-3.12A2.14,2.14,0,0,1,260.7,280.53Z" style="fill:#ebb376"></path><path d="M247.71,283a15.86,15.86,0,0,1,1,2.2l.42-.09c1.89-.39,2.63-1.2,2.89-2a2.5,2.5,0,0,0,.06-1.17,2.41,2.41,0,0,0-.19-.65,9.1,9.1,0,0,1-3.55,1.55C248,283,247.71,283,247.71,283Z" style="fill:#263238"></path><path d="M248.35,282.9l.32.64c1.78-.38,3-.89,3.42-1.54a2.41,2.41,0,0,0-.19-.65A9.1,9.1,0,0,1,248.35,282.9Z" style="fill:#fff"></path><path d="M249.14,285.15c1.89-.39,2.63-1.2,2.89-2a6.26,6.26,0,0,0-2,.86A2.37,2.37,0,0,0,249.14,285.15Z" style="fill:#de5753"></path><path d="M241.41,295.05c-4-.54-11.75,5.4-11.75,5.4l3.2,9.05,7.4-.68Z" style="fill:#4F719D"></path><path d="M240.25,308.82l-.65.06-6.74.62-1.31-3.72-1.89-5.33s7.78-5.94,11.75-5.4l-.56,6.67-.42,5Z" style="fill:#fff;opacity:0.6000000000000001;isolation:isolate"></path><path d="M240.43,306.7a15.52,15.52,0,0,1-.83,2.18l-6.74.62-1.31-3.72c3-3.67,9.06-5.07,9.06-5.07a6.75,6.75,0,0,1,.24,1A10.72,10.72,0,0,1,240.43,306.7Z" style="opacity:0.2;isolation:isolate"></path><path d="M265.72,321.56H233.78C236.2,301,241.16,295,241.16,295a69.66,69.66,0,0,1,7-1.77c.18.17.74.38,2.21.45a38.9,38.9,0,0,0,7.71-1C272.28,295.31,265.72,321.56,265.72,321.56Z" style="fill:#4F719D"></path><path d="M266.08,319.93c-.21,1-.36,1.63-.36,1.63H233.78C236.2,301,241.16,295,241.16,295a69.66,69.66,0,0,1,7-1.77c.18.17.74.38,2.21.45a38.9,38.9,0,0,0,7.71-1c4,.74,6.33,3.35,7.65,6.72C268.4,306.18,266.85,316.08,266.08,319.93Z" style="fill:#fff;opacity:0.6000000000000001;isolation:isolate"></path><path d="M266.08,319.93c-6.94,2-17.58-.39-19.36-7.49-2.77-11.06,11.64-14.53,11.64-14.53a11.73,11.73,0,0,1,7.39,1.47C268.4,306.18,266.85,316.08,266.08,319.93Z" style="opacity:0.2;isolation:isolate"></path><path d="M207.7,298.47l1-2.58s-8-4.51-9.21-3.23-2.24,5.77,0,6.82,5,1.7,6.11,1.23A6.19,6.19,0,0,0,207.7,298.47Z" style="fill:#ebb376"></path><path d="M207.7,298.47l1-2.58s-8-4.51-9.21-3.23-2.24,5.77,0,6.82,5,1.7,6.11,1.23A6.19,6.19,0,0,0,207.7,298.47Z" style="opacity:0.2;isolation:isolate"></path><path d="M210.11,318.16h0a1.11,1.11,0,0,1-1.46-.61l-8.28-20a1.12,1.12,0,0,1,.61-1.46h0a1.12,1.12,0,0,1,1.47.61l8.27,20A1.11,1.11,0,0,1,210.11,318.16Z"></path></g><path d="M389.86,348.47H96.64a1.21,1.21,0,0,0-1.21,1.21V392a1.21,1.21,0,0,0,1.21,1.21h82.29a1.21,1.21,0,0,1,1.21,1.21v3.48a1.21,1.21,0,0,0,1.21,1.21H217.2a1.21,1.21,0,0,0,1.21-1.21v-3.48a1.21,1.21,0,0,1,1.21-1.21h35.43a1.21,1.21,0,0,1,1.21,1.21h0a1.21,1.21,0,0,0,1.21,1.21h16.14a1.21,1.21,0,0,0,1.21-1.21h0a1.21,1.21,0,0,1,1.21-1.21H290.8a1.21,1.21,0,0,1,1.21,1.21v1.41a1.21,1.21,0,0,0,1.21,1.21h31.23a1.21,1.21,0,0,0,1.21-1.21v-1.41a1.21,1.21,0,0,1,1.21-1.21h63a1.21,1.21,0,0,0,1.21-1.21V349.68A1.21,1.21,0,0,0,389.86,348.47Z"></path><circle cx="140.62" cy="387.98" r="31.6" style="fill:#263238"></circle><path d="M140.62,412.13A24.15,24.15,0,1,1,164.77,388,24.17,24.17,0,0,1,140.62,412.13Z" style="opacity:0.2;isolation:isolate"></path><circle cx="140.62" cy="387.98" r="21.15" style="fill:#fff;opacity:0.6000000000000001;isolation:isolate"></circle><path d="M140.62,406.13A18.15,18.15,0,1,1,158.77,388,18.17,18.17,0,0,1,140.62,406.13Z" style="fill:#fff;opacity:0.6000000000000001;isolation:isolate"></path><path d="M140.62,393.13a5.15,5.15,0,1,1,5.15-5.15A5.16,5.16,0,0,1,140.62,393.13Z" style="opacity:0.2;isolation:isolate"></path><g style="opacity:0.2;isolation:isolate"><path d="M137,372.37l2.88,8.63a6.14,6.14,0,0,1,1.4,0l2.87-8.64a16.14,16.14,0,0,0-3.57-.4A15.66,15.66,0,0,0,137,372.37Z"></path><path d="M140.61,395a5.37,5.37,0,0,1-.7,0L137,403.6a16.14,16.14,0,0,0,3.57.4,15.66,15.66,0,0,0,3.58-.41L141.31,395A5.37,5.37,0,0,1,140.61,395Z"></path><path d="M156.23,384.41l-8.63,2.88a6.14,6.14,0,0,1,0,1.4l8.64,2.87a16.14,16.14,0,0,0,.4-3.57A15.66,15.66,0,0,0,156.23,384.41Z"></path><path d="M133.6,388a5.37,5.37,0,0,1,0-.7L125,384.41a16.14,16.14,0,0,0-.4,3.57,15.66,15.66,0,0,0,.41,3.58l8.63-2.88A5.37,5.37,0,0,1,133.6,388Z"></path><path d="M146.05,383.54l8.14-4.08a16.38,16.38,0,0,0-2.24-2.8,16.2,16.2,0,0,0-2.82-2.25l-4.07,8.14a6.95,6.95,0,0,1,1,1Z"></path><path d="M135.18,392.42,127,396.5a16.45,16.45,0,0,0,2.25,2.8,15.83,15.83,0,0,0,2.82,2.25l4.06-8.14a6.95,6.95,0,0,1-1-1Z"></path><path d="M145.58,393a4.6,4.6,0,0,1-.53.46l4.08,8.14a16.07,16.07,0,0,0,2.81-2.24,15.68,15.68,0,0,0,2.24-2.82L146,392.42A4.6,4.6,0,0,1,145.58,393Z"></path><path d="M129.29,376.65a15.68,15.68,0,0,0-2.24,2.82l8.14,4.07a4.69,4.69,0,0,1,.47-.53,5.53,5.53,0,0,1,.52-.46l-4.08-8.14A16.07,16.07,0,0,0,129.29,376.65Z"></path></g><circle cx="346.93" cy="387.98" r="31.6" style="fill:#263238"></circle><path d="M346.93,412.13A24.15,24.15,0,1,1,371.08,388,24.17,24.17,0,0,1,346.93,412.13Z" style="opacity:0.2;isolation:isolate"></path><circle cx="346.93" cy="387.98" r="21.15" style="fill:#fff;opacity:0.6000000000000001;isolation:isolate"></circle><path d="M346.93,406.13A18.15,18.15,0,1,1,365.08,388,18.17,18.17,0,0,1,346.93,406.13Z" style="fill:#fff;opacity:0.6000000000000001;isolation:isolate"></path><path d="M346.93,393.13a5.15,5.15,0,1,1,5.15-5.15A5.16,5.16,0,0,1,346.93,393.13Z" style="opacity:0.2;isolation:isolate"></path><g style="opacity:0.2;isolation:isolate"><path d="M343.35,372.37l2.88,8.63a6.14,6.14,0,0,1,1.4,0l2.87-8.64a16.14,16.14,0,0,0-3.57-.4A15.66,15.66,0,0,0,343.35,372.37Z"></path><path d="M346.92,395a5.37,5.37,0,0,1-.7,0l-2.87,8.64a16.14,16.14,0,0,0,3.57.4,15.66,15.66,0,0,0,3.58-.41L347.62,395A5.37,5.37,0,0,1,346.92,395Z"></path><path d="M362.54,384.41l-8.63,2.88a6.15,6.15,0,0,1,0,1.4l8.64,2.87A16.14,16.14,0,0,0,363,388,15.66,15.66,0,0,0,362.54,384.41Z"></path><path d="M339.91,388a5.37,5.37,0,0,1,0-.7l-8.64-2.87a16.14,16.14,0,0,0-.4,3.57,15.66,15.66,0,0,0,.41,3.58l8.63-2.88A5.37,5.37,0,0,1,339.91,388Z"></path><path d="M352.36,383.54l8.14-4.08a16.38,16.38,0,0,0-2.24-2.8,16.2,16.2,0,0,0-2.82-2.25l-4.07,8.14a6.95,6.95,0,0,1,1,1Z"></path><path d="M341.49,392.42l-8.14,4.08a16.38,16.38,0,0,0,2.24,2.8,15.9,15.9,0,0,0,2.83,2.25l4.06-8.14a6.95,6.95,0,0,1-1-1Z"></path><path d="M351.89,393a4.6,4.6,0,0,1-.53.46l4.08,8.14a16.07,16.07,0,0,0,2.81-2.24,15.68,15.68,0,0,0,2.24-2.82l-8.14-4.07A4.6,4.6,0,0,1,351.89,393Z"></path><path d="M335.6,376.65a15.68,15.68,0,0,0-2.24,2.82l8.14,4.07A4.69,4.69,0,0,1,342,383a5.53,5.53,0,0,1,.52-.46l-4.08-8.14A16.07,16.07,0,0,0,335.6,376.65Z"></path></g><path d="M259.13,318.23s4.09-16.63,9.51-19.76c0,0-1.79-1.3.52-7s4.5-10.35,8.33-9.19,14.48,8.05,0,16.19c0,0,3,7.83,3,25.28s-18.32,36.42-22.2,33.46S259.13,318.23,259.13,318.23Z" style="fill:#263238"></path><path d="M352.21,299.65c-1.76,2.19-1.78,5.23-1.37,7.72a20.45,20.45,0,0,0,1.24,4.4l-59,7.54V309.1s-.45-6.14,29.71-6.67c0,0,16.8-16.23,20.57-15.83,5.73.6,3.58,5.18,3.58,5.18a8.55,8.55,0,0,1,4.43,0C353.84,292.64,355.71,295.29,352.21,299.65Z" style="fill:#263238"></path><path d="M352.21,299.65c-1.76,2.19-1.78,5.23-1.37,7.72-11.5,2.05-53.86,5-51.71,2.18,2.38-3.07,26.61-2.67,28-3.56s19.81-14.21,19.81-14.21a8.55,8.55,0,0,1,4.43,0C353.84,292.64,355.71,295.29,352.21,299.65Z" style="opacity:0.2;isolation:isolate"></path><path d="M404.08,386.26l-22.21.18A35,35,0,0,0,312,387l-136.36,1.12V388a35,35,0,0,0-64.38-18.9,34.65,34.65,0,0,0-5.57,18.9c0,.25,0,.5,0,.75l-6.81-3.21-17.16-8.09s-5.15-32.61,9.63-49.92,70.46-30.16,70.46-30.16,16.23-22,26.79-32.72l.94-.94a2.86,2.86,0,0,1,2-.8H198a1.05,1.05,0,0,1,1,1.52c-3.14,6.45-15.1,31.81-15.1,44.7H325.78l26.43-9.45s42.78,8.76,47.7,14.45a10.21,10.21,0,0,1,1.46,4.13C404.66,334.09,404.08,386.26,404.08,386.26Z" style="fill:#4F719D"></path><path d="M103.11,318.4c7.57-1.92,5.87,13.83-4.42,22.27s-14.34,8.06-15.48,3.24S88,322.24,103.11,318.4Z" style="fill:#4F719D"></path><path d="M103.11,318.4c7.57-1.92,5.87,13.83-4.42,22.27s-14.34,8.06-15.48,3.24S88,322.24,103.11,318.4Z" style="fill:#fff;opacity:0.6000000000000001;isolation:isolate"></path><path d="M102.5,331.47c-1.35,4.72-4.34,8-6.67,7.34s-3.14-5-1.79-9.76,4.34-8,6.68-7.34S103.86,326.75,102.5,331.47Z" style="fill:#fff;opacity:0.6000000000000001;isolation:isolate"></path><path d="M90.91,338.26c-.62,2.18-2,3.69-3.07,3.38s-1.45-2.32-.82-4.49,2-3.69,3.07-3.38S91.54,336.09,90.91,338.26Z" style="fill:#fff;opacity:0.6000000000000001;isolation:isolate"></path><path d="M105,328s-8.13,9.89-19.76,9.69c0,0,5.12-13.78,17.92-18C103.18,319.7,107,322.6,105,328Z" style="fill:#fff;opacity:0.2;isolation:isolate"></path><path d="M193.73,265.31c-1.06,1.71-2.16,3.6-3.28,5.58-5.56,9.79-11.4,21.71-13.16,25.35a2,2,0,0,1-1.77,1.1H161.77s16.23-22,26.79-32.72h4.78A.45.45,0,0,1,193.73,265.31Z" style="fill:#263238"></path><path d="M193.73,265.31c-1.06,1.71-2.16,3.6-3.28,5.58a225.42,225.42,0,0,0-25.63,26.45h-3s16.23-22,26.79-32.72h4.78A.45.45,0,0,1,193.73,265.31Z" style="fill:#fff;opacity:0.2;isolation:isolate"></path><path d="M404.08,386.26l-22.21.18A35,35,0,0,0,312,387l-136.36,1.12V388a35,35,0,0,0-64.38-18.9,34.65,34.65,0,0,0-5.57,18.9c0,.25,0,.5,0,.75l-6.81-3.21-1.66-28.3s7.65-18.45,36.16-28.5,248.47-2.91,248.47-2.91,12.33-6.69,19.56-7.57c.32,1.53.6,3.39.85,5.52.83,7.13,1.31,17.17,1.58,27.12C404.28,368.71,404.08,386.26,404.08,386.26Z" style="opacity:0.2;isolation:isolate"></path><path d="M389.73,371.13l-7.86,15.31A35,35,0,0,0,312,387l-136.36,1.12V388a35,35,0,0,0-64.38-18.9l-6.68-5.65s8.52-21.62,36.09-21.62,39.83,20.86,43,35.84H303.88s10.53-35.84,43.05-35.84S389.73,371.13,389.73,371.13Z" style="fill:#4F719D"></path><path d="M106.54,399a3.1,3.1,0,0,1-3.1,3.13H94.87a5.85,5.85,0,0,1-3.55-1.2L76.05,389.25a9.67,9.67,0,0,1-2.49-2.85,9.56,9.56,0,0,1-1.24-4.7V367.8a6,6,0,0,1,1.92-4.36l6.82-6.23H97.18l14,11.86C106.83,375.75,106.48,392.11,106.54,399Z" style="fill:#4F719D"></path><path d="M90.25,377.17a11.33,11.33,0,0,1-1.94,6.91,2.78,2.78,0,0,1-2.11,1.19c-2.24,0-4.06-3.62-4.06-8.1s1.82-8.1,4.06-8.1a2.66,2.66,0,0,1,1.93,1C89.39,371.42,90.25,374.1,90.25,377.17Z" style="opacity:0.2;isolation:isolate"></path><path d="M90.25,377.17a11.33,11.33,0,0,1-1.94,6.91C87.05,382.71,86.2,380,86.2,377a11.44,11.44,0,0,1,1.93-6.91C89.39,371.42,90.25,374.1,90.25,377.17Z" style="fill:#fff;opacity:0.2;isolation:isolate"></path><path d="M97.18,357.21l-9,8H72.93a5.78,5.78,0,0,1,1.31-1.76l6.82-6.23Z" style="fill:#fff;opacity:0.1;isolation:isolate"></path><path d="M106.54,399a3.1,3.1,0,0,1-3.1,3.13H94.87a5.85,5.85,0,0,1-3.55-1.2L76.05,389.25a9.67,9.67,0,0,1-2.49-2.85H91.77l9.36,7.61s-1.51-16,6.66-25.75L97.18,357.21l14,11.86C106.83,375.75,106.48,392.11,106.54,399Z" style="opacity:0.2;isolation:isolate"></path><path d="M381.87,386.44l17.22-33h5l5.94,3.69a5.82,5.82,0,0,1,2.74,4.94v25.16a5.82,5.82,0,0,1-2.55,4.81l-6.62,4.5a3.39,3.39,0,0,1-1.88.58H385.23a3.36,3.36,0,0,1-3.36-3.36Z" style="fill:#4F719D"></path><g style="opacity:0.2;isolation:isolate"><path d="M183.62,378.14a.5.5,0,0,1-.5-.5c0-6.57-6.58-16.05-6.65-16.15a.47.47,0,0,1-.09-.28c0-39.76,3.71-49.92,3.87-50.33l1.82-8.55a.51.51,0,0,1,.59-.39.5.5,0,0,1,.39.6l-1.85,8.62c-.06.17-3.81,10.55-3.82,49.89.85,1.23,6.74,10.05,6.74,16.59A.5.5,0,0,1,183.62,378.14Z"></path></g><path d="M185.16,298.47a4,4,0,0,0-3.89,3.12c-.8,3.54-1.78,8.89-.56,9.47s7.55.69,11.83.71a4,4,0,0,0,4-4v-.6a8.71,8.71,0,0,0-8.7-8.71Z" style="fill:#263238"></path><path d="M185.16,298.47a4,4,0,0,0-3.89,3.12c-.8,3.54-1.78,8.89-.56,9.47s7.55.69,11.83.71a4,4,0,0,0,4-4v-.6a8.71,8.71,0,0,0-8.7-8.71Z" style="opacity:0.2;isolation:isolate"></path><path d="M205.11,305.12c-1.71.74-12.13.8-12.13.8l-.24.76a2.55,2.55,0,0,1-2.45,1.81H189a2,2,0,0,1-2-2.46c.18-.84.39-1.83.64-2.89,1-4.4,2.45-10,3.47-10.73,1.5-1,10.68-.76,13.9.67a2.37,2.37,0,0,1,1,.72C207.35,295.84,206.82,304.38,205.11,305.12Z" style="fill:#263238"></path><path d="M205,293.08a45.91,45.91,0,0,1-1.16,8.36,2.72,2.72,0,0,1-2.55,2.15l-11.24.5a3.19,3.19,0,0,1-2.42-.95c1-4.4,2.45-10,3.47-10.73C192.63,291.37,201.81,291.65,205,293.08Z" style="fill:#fff;opacity:0.1;isolation:isolate"></path><g style="opacity:0.2;isolation:isolate"><path d="M278,378.53a.5.5,0,0,1-.49.4h-.1a.49.49,0,0,1-.39-.59c8.92-43.93,5.3-68.91,5.27-69.16a.17.17,0,0,1,0-.07h1C283.51,310.7,286.71,335.65,278,378.53Z"></path></g><path d="M273,328.65H262.05a4.5,4.5,0,0,0,0,9H273a4.5,4.5,0,0,0,0-9Zm1.7,6.54H260.36a2,2,0,0,1,0-4.09h14.33a2,2,0,0,1,0,4.09Z" style="opacity:0.2;isolation:isolate"></path><path d="M410.55,367.06h2.25a0,0,0,0,1,0,0v16.48a0,0,0,0,1,0,0h-2.25a3,3,0,0,1-3-3V370.09A3,3,0,0,1,410.55,367.06Z" style="opacity:0.4;isolation:isolate"></path><path d="M403.8,350.87c-4-1.53-7-6.82-7.19-13.22,0-.25,0-.5,0-.75,0-5.85,2.31-10.88,5.63-13.15.46,3.92.81,8.72,1.07,13.9C403.52,341.89,403.67,346.39,403.8,350.87Z" style="opacity:0.4;isolation:isolate"></path><path d="M403.8,350.87c-4-1.53-7-6.82-7.19-13.22h6.68C403.52,341.89,403.67,346.39,403.8,350.87Z" style="fill:#fff;opacity:0.6000000000000001;isolation:isolate"></path><path d="M166.79,331.1h-6.7a2,2,0,0,1-2-2h0a2,2,0,0,1,2-2h6.7a2,2,0,0,1,2,2h0A2,2,0,0,1,166.79,331.1Z" style="fill:#fff;opacity:0.2;isolation:isolate"></path><path d="M262.46,306.8s-11.86,12.82-14.55,14.56-18.25-12-18.25-12-8.37-1.94-8.46-2,4-4,6.09-4,5.26,3.43,5.36,3.44,11.43,9.18,13.29,8,7.73-10.68,7.73-10.68Z" style="fill:#ebb376"></path><path d="M263.57,294.72c5.66,4,1.64,12.39-5.1,19.35l-9.4-6.05S256.67,289.79,263.57,294.72Z" style="fill:#4F719D"></path><path d="M263.57,294.72c5.66,4,1.64,12.39-5.1,19.35l-9.4-6.05S256.67,289.79,263.57,294.72Z" style="fill:#fff;opacity:0.6000000000000001;isolation:isolate"></path></g></svg>