<svg version="1.1" id="Layer_1" xmlns="http://www.w3.org/2000/svg" xmlns:xlink="http://www.w3.org/1999/xlink" x="0px" y="0px"
	 width="100%" viewBox="0 0 1884 875" enable-background="new 0 0 1884 875" xml:space="preserve">
<path fill="#FFFFFF" opacity="1.000000" stroke="none" 
	d="
M1130.000000,876.000000 
	C753.333313,876.000000 377.166656,876.000000 1.000000,876.000000 
	C1.000000,584.333313 1.000000,292.666656 1.000000,1.000000 
	C629.000000,1.000000 1257.000000,1.000000 1885.000000,1.000000 
	C1885.000000,292.666656 1885.000000,584.333313 1885.000000,876.000000 
	C1633.500000,876.000000 1382.000000,876.000000 1130.000000,876.000000 
M512.068787,724.026550 
	C361.821106,724.026550 211.573425,724.026550 61.316673,724.026550 
	C61.316673,732.630188 61.316673,740.691650 61.316673,749.003235 
	C63.114391,749.003235 64.593323,749.003235 66.072250,749.003235 
	C217.550507,749.000671 369.028748,748.998596 520.507019,748.988892 
	C522.003235,748.988770 523.499390,748.887207 525.923340,748.980164 
	C661.286499,748.985168 796.649658,748.990479 932.012817,748.988403 
	C933.008240,748.988342 934.003662,748.887024 935.916565,748.980896 
	C1086.948120,748.985718 1237.979736,748.990845 1389.011353,748.988708 
	C1390.006836,748.988708 1391.002197,748.887085 1392.925293,748.978943 
	C1532.166260,748.978943 1671.407104,748.978943 1810.666016,748.978943 
	C1810.666016,740.367188 1810.666016,732.309570 1810.666016,724.003906 
	C1808.860107,724.003906 1807.378296,724.003906 1805.896484,724.003906 
	C1669.092285,724.001648 1532.287964,723.998840 1395.483765,724.004150 
	C1393.987915,724.004211 1392.492188,724.110352 1390.078613,724.026062 
	C1241.379517,724.016418 1092.680298,724.006409 943.981201,724.004028 
	C942.986145,724.004028 941.991028,724.110352 940.068420,724.027100 
	C798.706116,724.017090 657.343750,724.006714 515.981445,724.004089 
	C514.986389,724.004089 513.991272,724.110413 512.068787,724.026550 
M271.910522,403.807251 
	C281.672699,403.807251 291.434875,403.807251 301.365967,403.807251 
	C301.365967,386.929657 301.365967,370.677948 301.365967,353.836304 
	C287.389130,353.836304 273.670166,353.836304 259.640442,353.836304 
	C259.640442,324.630463 259.640442,296.014160 259.640442,267.053040 
	C247.208786,267.053040 235.104004,267.053040 222.081253,266.873505 
	C218.147614,266.873505 214.213974,266.873505 209.838486,266.873505 
	C209.838486,296.189789 209.838486,324.925446 209.838486,353.735046 
	C190.623993,353.735046 171.875244,353.735046 152.629364,353.735046 
	C152.629364,324.733032 152.629364,295.993164 152.629364,267.083160 
	C135.881927,267.083160 119.633965,267.083160 102.911453,267.083160 
	C102.911453,296.058929 102.911453,324.793823 102.911453,354.063019 
	C88.725044,354.063019 75.002975,354.063019 61.249748,354.063019 
	C61.249748,370.857178 61.249748,387.110779 61.249748,403.963684 
	C75.199715,403.963684 88.908356,403.963684 102.607971,403.963684 
	C102.607971,423.309509 102.607971,442.052673 102.607971,461.203522 
	C88.712135,461.203522 75.114960,461.203522 61.309784,461.203522 
	C61.309784,477.986298 61.309784,494.357147 61.309784,511.270081 
	C75.335007,511.270081 89.054428,511.270081 103.112183,511.270081 
	C103.112183,540.576111 103.112183,569.340149 103.112183,598.240906 
	C119.717438,598.240906 135.963409,598.240906 152.796112,598.240906 
	C152.796112,569.067139 152.796112,540.197571 152.796112,511.288605 
	C172.124710,511.288605 190.863129,511.288605 210.127533,511.288605 
	C210.127533,540.450867 210.127533,569.328125 210.127533,598.204468 
	C226.908524,598.204468 243.158890,598.204468 259.971191,598.204468 
	C259.971191,568.986267 259.971191,540.110474 259.971191,510.796570 
	C274.108154,510.796570 287.683594,510.796570 301.314514,510.796570 
	C301.314514,494.098328 301.314514,477.849670 301.314514,461.128235 
	C287.431152,461.128235 273.850708,461.128235 260.169464,461.128235 
	C260.169464,441.787903 260.169464,422.925720 260.169464,403.616821 
	C264.027893,403.616821 267.508667,403.616821 271.910522,403.807251 
M1493.252441,612.500000 
	C1493.251953,569.342407 1493.206665,526.184692 1493.332764,483.027496 
	C1493.343262,479.468750 1492.339111,477.172028 1489.402954,475.188751 
	C1484.980347,472.201324 1480.829468,468.811951 1475.569946,464.844330 
	C1486.661865,464.844330 1496.322510,464.982269 1505.975342,464.768616 
	C1509.300171,464.694977 1510.418579,465.856140 1511.253540,469.030731 
	C1525.081543,521.607300 1539.069458,574.141846 1553.027466,626.684204 
	C1556.045410,638.044861 1559.086060,649.399536 1562.059814,660.545471 
	C1583.047852,660.545471 1603.466553,660.545471 1624.580078,660.545471 
	C1607.263428,595.233215 1590.066895,530.373840 1572.692627,464.844025 
	C1574.801025,464.844025 1576.407104,464.850708 1578.013184,464.843048 
	C1606.700562,464.705963 1624.714600,446.605011 1624.727905,417.797821 
	C1624.754150,360.809479 1624.763184,303.821106 1624.677734,246.832870 
	C1624.671021,242.366745 1624.242798,237.828430 1623.376099,233.449188 
	C1619.908081,215.927383 1604.804688,199.243347 1577.984253,199.330063 
	C1527.329102,199.493805 1476.672363,199.136551 1426.016235,199.013580 
	C1424.807495,199.010635 1423.598389,199.216904 1421.909546,199.368744 
	C1423.740845,201.682678 1424.999878,203.681107 1426.647461,205.278656 
	C1431.519775,210.002960 1432.764282,215.577942 1432.755737,222.334381 
	C1432.573975,366.304688 1432.613525,510.275299 1432.610107,654.245850 
	C1432.610107,656.326172 1432.610107,658.406494 1432.610107,660.590942 
	C1453.177002,660.590942 1472.932495,660.590942 1493.252563,660.590942 
	C1493.252563,644.725891 1493.252563,629.112976 1493.252441,612.500000 
M1214.468750,627.713013 
	C1219.623291,649.305969 1235.772949,662.005127 1258.079468,662.005066 
	C1293.071167,662.004883 1328.062988,662.002869 1363.054688,662.004578 
	C1371.996216,662.005066 1380.081787,659.306702 1387.346069,654.169006 
	C1400.769775,644.674927 1405.788818,631.241394 1405.781738,615.283020 
	C1405.732056,501.643097 1405.752563,388.003174 1405.750366,274.363251 
	C1405.750244,264.865509 1405.888184,255.365250 1405.719604,245.870468 
	C1405.279297,221.075409 1387.604248,201.348312 1364.472656,201.058456 
	C1327.821533,200.599197 1291.157959,200.737625 1254.505615,201.150848 
	C1248.761108,201.215607 1242.552246,203.116760 1237.412109,205.802917 
	C1221.211182,214.269165 1213.577271,228.071350 1213.590698,246.471939 
	C1213.680298,369.442963 1213.626831,492.414062 1213.655518,615.385132 
	C1213.656494,619.208984 1214.044678,623.032715 1214.468750,627.713013 
M995.012817,447.500000 
	C995.012817,518.553772 995.012817,589.607483 995.012817,660.481201 
	C1015.777710,660.481201 1035.691040,660.481201 1055.584961,660.481201 
	C1055.728271,659.638550 1055.882080,659.155823 1055.882202,658.673157 
	C1055.897705,599.517212 1055.922852,540.361206 1055.796875,481.205597 
	C1055.793457,479.583618 1054.534302,477.513489 1053.220215,476.426941 
	C1048.694092,472.684601 1043.883423,469.286438 1038.500000,465.245972 
	C1068.570679,465.245972 1097.571777,465.245972 1127.003418,465.245972 
	C1127.003418,530.559082 1127.003418,595.469421 1127.003418,660.561279 
	C1147.170532,660.561279 1166.902832,660.561279 1186.647949,660.561279 
	C1186.647949,506.780426 1186.647949,353.284027 1186.647949,199.815369 
	C1166.613770,199.815369 1147.006104,199.815369 1126.799561,199.815369 
	C1126.799561,264.941071 1126.799561,329.815887 1126.799561,394.607605 
	C1102.813721,394.607605 1079.431152,394.607605 1055.650879,394.607605 
	C1055.650879,329.453674 1055.650879,264.691956 1055.650879,200.009979 
	C1031.926880,200.009979 1008.608765,200.009979 984.581604,200.009979 
	C986.531311,202.417374 987.834595,204.346725 989.451965,205.961487 
	C993.657959,210.160736 995.197388,214.867493 995.176880,221.041214 
	C994.928162,296.193512 995.013855,371.346893 995.012817,447.500000 
M789.580933,520.152832 
	C786.656982,520.152832 783.733093,520.152832 780.955261,520.152832 
	C780.657166,521.343750 780.434753,521.817993 780.434509,522.292358 
	C780.419128,554.456604 780.178772,586.623352 780.498535,618.784424 
	C780.761414,645.221252 803.081787,662.718628 826.287903,662.203796 
	C860.768860,661.438904 895.279419,662.015808 929.777344,661.978210 
	C932.091614,661.975708 934.458557,661.855896 936.711365,661.372742 
	C958.937927,656.606201 972.567078,639.544678 972.627563,616.156494 
	C972.721069,579.992249 972.576477,543.827148 972.746643,507.663452 
	C972.767578,503.205414 971.560181,499.830658 968.760742,496.407013 
	C927.002563,445.338623 885.329041,394.200928 843.780762,342.961792 
	C842.090027,340.876617 841.069153,337.645142 841.025269,334.926971 
	C840.769958,319.098694 841.010437,303.262482 840.766235,287.433899 
	C840.734253,285.362122 839.365051,282.780273 837.782898,281.365631 
	C833.541687,277.573547 828.848572,274.286865 823.724243,270.327576 
	C853.770142,270.327576 882.816467,270.327576 912.232056,270.327576 
	C912.232056,293.422668 912.232056,316.192871 912.232056,339.177429 
	C932.486206,339.177429 952.367004,339.177429 972.224976,339.177429 
	C972.410461,338.329926 972.605835,337.853302 972.606140,337.376556 
	C972.624084,306.545288 972.918274,275.710510 972.543579,244.883835 
	C972.202393,216.815323 950.843750,200.165924 926.205139,200.670197 
	C893.054321,201.348709 859.879089,200.803925 826.714600,200.879257 
	C822.574646,200.888657 818.311035,200.946030 814.317810,201.886215 
	C793.542664,206.777634 780.532288,222.983627 780.440186,244.338516 
	C780.277832,282.002258 780.329102,319.667450 780.512939,357.330933 
	C780.525330,359.855499 781.855469,362.814514 783.490112,364.825836 
	C825.201172,416.149963 867.015259,467.390381 908.898132,518.574524 
	C911.261536,521.462891 912.225342,524.335083 912.190430,528.047363 
	C912.026123,545.544800 912.116760,563.044617 912.116394,580.543579 
	C912.116333,584.338928 912.116394,588.134338 912.116394,592.175537 
	C888.210571,592.175537 864.815613,592.175537 840.729736,592.175537 
	C840.729736,568.072876 840.729736,544.208313 840.729736,520.152893 
	C823.547119,520.152893 807.054504,520.152893 789.580933,520.152832 
M575.056519,614.438599 
	C580.835632,630.302979 586.614746,646.167419 592.283386,661.728394 
	C614.134766,661.728394 635.364929,661.728394 656.867615,661.728394 
	C656.420898,660.310913 656.118469,659.204041 655.726807,658.129822 
	C628.684570,583.961365 601.656738,509.787628 574.513367,435.656189 
	C573.341492,432.455719 573.410645,429.821442 574.569397,426.660065 
	C601.394958,353.474335 628.118286,280.251099 654.843994,207.028763 
	C655.541504,205.117706 656.054810,203.139389 656.762512,200.840118 
	C636.519104,200.840118 616.865234,200.954544 597.214905,200.741013 
	C593.406921,200.699646 591.846375,201.856216 590.556885,205.450089 
	C574.840820,249.250732 558.923584,292.979187 543.048706,336.722839 
	C542.426208,338.438232 541.705505,340.118073 540.672485,342.714478 
	C523.142822,294.738739 506.035065,247.917770 488.923187,201.085449 
	C465.613129,201.085449 442.550049,201.085449 418.685883,201.085449 
	C421.540222,204.696365 424.108521,207.682495 426.366119,210.887497 
	C428.067322,213.302597 429.783203,215.846603 430.790497,218.590942 
	C456.217346,287.864532 481.586853,357.159302 506.772156,426.520905 
	C507.791077,429.327087 507.808014,433.144531 506.792358,435.947449 
	C480.123901,509.544647 453.256226,583.069580 426.430847,656.609924 
	C425.833679,658.247070 425.331360,659.918762 424.702576,661.823486 
	C446.465912,661.823486 467.589813,661.823486 488.874664,661.823486 
	C506.054108,614.834778 523.194458,567.953064 540.788208,519.831116 
	C552.437134,551.916870 563.648926,582.798523 575.056519,614.438599 
M1785.500000,200.844559 
	C1736.675781,200.844559 1687.851685,200.844559 1638.074341,200.844559 
	C1640.318237,203.755066 1641.525269,205.809601 1643.187134,207.383835 
	C1648.017456,211.959244 1649.059937,217.422104 1649.052124,223.960968 
	C1648.882080,367.783112 1648.920288,511.605499 1648.918579,655.427856 
	C1648.918579,657.523193 1648.918579,659.618469 1648.918579,661.669006 
	C1703.296997,661.669006 1757.024414,661.669006 1810.805420,661.669006 
	C1810.805420,638.551575 1810.805420,615.769653 1810.805420,592.466675 
	C1777.200806,592.466675 1743.786255,592.466675 1709.768311,592.466675 
	C1709.768311,590.005920 1709.768311,588.059387 1709.768311,586.112854 
	C1709.767822,552.448730 1709.693604,518.784302 1709.864136,485.121063 
	C1709.884399,481.142517 1708.697388,478.670563 1705.412842,476.549744 
	C1701.171753,473.811340 1697.247559,470.582092 1693.186768,467.564178 
	C1693.299561,467.229095 1693.412231,466.893982 1693.524902,466.558899 
	C1722.568604,466.558899 1751.612183,466.558899 1780.677734,466.558899 
	C1780.677734,442.928040 1780.677734,419.869965 1780.677734,396.259399 
	C1756.947510,396.259399 1733.551392,396.259399 1709.761841,396.259399 
	C1709.761841,393.904205 1709.761963,392.100800 1709.761963,390.297363 
	C1709.761475,357.299896 1709.609131,324.301025 1709.909546,291.306305 
	C1709.959595,285.815674 1708.434448,282.312653 1703.868164,279.468323 
	C1699.897095,276.994781 1696.346436,273.846222 1692.609985,270.996002 
	C1692.770142,270.640533 1692.930420,270.285095 1693.090576,269.929626 
	C1732.300415,269.929626 1771.510254,269.929626 1810.701904,269.929626 
	C1810.701904,246.695831 1810.701904,223.945465 1810.701904,200.844498 
	C1802.440674,200.844498 1794.470337,200.844498 1785.500000,200.844559 
z"/>
<path fill="#4C5C72" opacity="1.000000" stroke="none" 
	d="
M1493.252441,613.000000 
	C1493.252563,629.112976 1493.252563,644.725891 1493.252563,660.590942 
	C1472.932495,660.590942 1453.177002,660.590942 1432.610107,660.590942 
	C1432.610107,658.406494 1432.610107,656.326172 1432.610107,654.245850 
	C1432.613525,510.275299 1432.573975,366.304688 1432.755737,222.334381 
	C1432.764282,215.577942 1431.519775,210.002960 1426.647461,205.278656 
	C1424.999878,203.681107 1423.740845,201.682678 1421.909546,199.368744 
	C1423.598389,199.216904 1424.807495,199.010635 1426.016235,199.013580 
	C1476.672363,199.136551 1527.329102,199.493805 1577.984253,199.330063 
	C1604.804688,199.243347 1619.908081,215.927383 1623.376099,233.449188 
	C1624.242798,237.828430 1624.671021,242.366745 1624.677734,246.832870 
	C1624.763184,303.821106 1624.754150,360.809479 1624.727905,417.797821 
	C1624.714600,446.605011 1606.700562,464.705963 1578.013184,464.843048 
	C1576.407104,464.850708 1574.801025,464.844025 1572.692627,464.844025 
	C1590.066895,530.373840 1607.263428,595.233215 1624.580078,660.545471 
	C1603.466553,660.545471 1583.047852,660.545471 1562.059814,660.545471 
	C1559.086060,649.399536 1556.045410,638.044861 1553.027466,626.684204 
	C1539.069458,574.141846 1525.081543,521.607300 1511.253540,469.030731 
	C1510.418579,465.856140 1509.300171,464.694977 1505.975342,464.768616 
	C1496.322510,464.982269 1486.661865,464.844330 1475.569946,464.844330 
	C1480.829468,468.811951 1484.980347,472.201324 1489.402954,475.188751 
	C1492.339111,477.172028 1493.343262,479.468750 1493.332764,483.027496 
	C1493.206665,526.184692 1493.251953,569.342407 1493.252441,613.000000 
M1564.177612,341.500000 
	C1564.177612,317.266907 1564.177612,293.033783 1564.177612,268.903259 
	C1534.645020,268.903259 1505.866455,268.903259 1475.833252,268.903259 
	C1480.932983,272.788635 1484.889282,276.080109 1489.134033,278.944183 
	C1492.203247,281.015045 1493.349976,283.372528 1493.331543,287.168671 
	C1493.166504,321.150208 1493.235840,355.132843 1493.236206,389.115173 
	C1493.236206,390.905212 1493.236206,392.695282 1493.236206,394.698303 
	C1517.103638,394.698303 1540.477661,394.698303 1564.177734,394.698303 
	C1564.177734,377.096985 1564.177734,359.798492 1564.177612,341.500000 
z"/>
<path fill="#4B5B71" opacity="1.000000" stroke="none" 
	d="
M1214.360596,627.284790 
	C1214.044678,623.032715 1213.656494,619.208984 1213.655518,615.385132 
	C1213.626831,492.414062 1213.680298,369.442963 1213.590698,246.471939 
	C1213.577271,228.071350 1221.211182,214.269165 1237.412109,205.802917 
	C1242.552246,203.116760 1248.761108,201.215607 1254.505615,201.150848 
	C1291.157959,200.737625 1327.821533,200.599197 1364.472656,201.058456 
	C1387.604248,201.348312 1405.279297,221.075409 1405.719604,245.870468 
	C1405.888184,255.365250 1405.750244,264.865509 1405.750366,274.363251 
	C1405.752563,388.003174 1405.732056,501.643097 1405.781738,615.283020 
	C1405.788818,631.241394 1400.769775,644.674927 1387.346069,654.169006 
	C1380.081787,659.306702 1371.996216,662.005066 1363.054688,662.004578 
	C1328.062988,662.002869 1293.071167,662.004883 1258.079468,662.005066 
	C1235.772949,662.005127 1219.623291,649.305969 1214.360596,627.284790 
M1273.964600,423.500000 
	C1273.964600,479.731689 1273.964600,535.963379 1273.964600,592.016357 
	C1298.121704,592.016357 1321.509521,592.016357 1344.869385,592.016357 
	C1344.869385,484.715179 1344.869385,377.829620 1344.869385,271.059387 
	C1315.755249,271.059387 1286.979614,271.059387 1257.118286,271.059387 
	C1261.977051,274.809021 1265.788330,278.026947 1269.887695,280.822418 
	C1272.931030,282.897705 1274.075806,285.239410 1274.062622,289.039978 
	C1273.907715,333.526245 1273.964233,378.013214 1273.964600,423.500000 
z"/>
<path fill="#49596F" opacity="1.000000" stroke="none" 
	d="
M995.012817,447.000000 
	C995.013855,371.346893 994.928162,296.193512 995.176880,221.041214 
	C995.197388,214.867493 993.657959,210.160736 989.451965,205.961487 
	C987.834595,204.346725 986.531311,202.417374 984.581604,200.009979 
	C1008.608765,200.009979 1031.926880,200.009979 1055.650879,200.009979 
	C1055.650879,264.691956 1055.650879,329.453674 1055.650879,394.607605 
	C1079.431152,394.607605 1102.813721,394.607605 1126.799561,394.607605 
	C1126.799561,329.815887 1126.799561,264.941071 1126.799561,199.815369 
	C1147.006104,199.815369 1166.613770,199.815369 1186.647949,199.815369 
	C1186.647949,353.284027 1186.647949,506.780426 1186.647949,660.561279 
	C1166.902832,660.561279 1147.170532,660.561279 1127.003418,660.561279 
	C1127.003418,595.469421 1127.003418,530.559082 1127.003418,465.245972 
	C1097.571777,465.245972 1068.570679,465.245972 1038.500000,465.245972 
	C1043.883423,469.286438 1048.694092,472.684601 1053.220215,476.426941 
	C1054.534302,477.513489 1055.793457,479.583618 1055.796875,481.205597 
	C1055.922852,540.361206 1055.897705,599.517212 1055.882202,658.673157 
	C1055.882080,659.155823 1055.728271,659.638550 1055.584961,660.481201 
	C1035.691040,660.481201 1015.777710,660.481201 995.012817,660.481201 
	C995.012817,589.607483 995.012817,518.553772 995.012817,447.000000 
z"/>
<path fill="#48586E" opacity="1.000000" stroke="none" 
	d="
M790.071411,520.152832 
	C807.054504,520.152893 823.547119,520.152893 840.729736,520.152893 
	C840.729736,544.208313 840.729736,568.072876 840.729736,592.175537 
	C864.815613,592.175537 888.210571,592.175537 912.116394,592.175537 
	C912.116394,588.134338 912.116333,584.338928 912.116394,580.543579 
	C912.116760,563.044617 912.026123,545.544800 912.190430,528.047363 
	C912.225342,524.335083 911.261536,521.462891 908.898132,518.574524 
	C867.015259,467.390381 825.201172,416.149963 783.490112,364.825836 
	C781.855469,362.814514 780.525330,359.855499 780.512939,357.330933 
	C780.329102,319.667450 780.277832,282.002258 780.440186,244.338516 
	C780.532288,222.983627 793.542664,206.777634 814.317810,201.886215 
	C818.311035,200.946030 822.574646,200.888657 826.714600,200.879257 
	C859.879089,200.803925 893.054321,201.348709 926.205139,200.670197 
	C950.843750,200.165924 972.202393,216.815323 972.543579,244.883835 
	C972.918274,275.710510 972.624084,306.545288 972.606140,337.376556 
	C972.605835,337.853302 972.410461,338.329926 972.224976,339.177429 
	C952.367004,339.177429 932.486206,339.177429 912.232056,339.177429 
	C912.232056,316.192871 912.232056,293.422668 912.232056,270.327576 
	C882.816467,270.327576 853.770142,270.327576 823.724243,270.327576 
	C828.848572,274.286865 833.541687,277.573547 837.782898,281.365631 
	C839.365051,282.780273 840.734253,285.362122 840.766235,287.433899 
	C841.010437,303.262482 840.769958,319.098694 841.025269,334.926971 
	C841.069153,337.645142 842.090027,340.876617 843.780762,342.961792 
	C885.329041,394.200928 927.002563,445.338623 968.760742,496.407013 
	C971.560181,499.830658 972.767578,503.205414 972.746643,507.663452 
	C972.576477,543.827148 972.721069,579.992249 972.627563,616.156494 
	C972.567078,639.544678 958.937927,656.606201 936.711365,661.372742 
	C934.458557,661.855896 932.091614,661.975708 929.777344,661.978210 
	C895.279419,662.015808 860.768860,661.438904 826.287903,662.203796 
	C803.081787,662.718628 780.761414,645.221252 780.498535,618.784424 
	C780.178772,586.623352 780.419128,554.456604 780.434509,522.292358 
	C780.434753,521.817993 780.657166,521.343750 780.955261,520.152832 
	C783.733093,520.152832 786.656982,520.152832 790.071411,520.152832 
z"/>
<path fill="#45566C" opacity="1.000000" stroke="none" 
	d="
M574.958618,614.059387 
	C563.648926,582.798523 552.437134,551.916870 540.788208,519.831116 
	C523.194458,567.953064 506.054108,614.834778 488.874664,661.823486 
	C467.589813,661.823486 446.465912,661.823486 424.702576,661.823486 
	C425.331360,659.918762 425.833679,658.247070 426.430847,656.609924 
	C453.256226,583.069580 480.123901,509.544647 506.792358,435.947449 
	C507.808014,433.144531 507.791077,429.327087 506.772156,426.520905 
	C481.586853,357.159302 456.217346,287.864532 430.790497,218.590942 
	C429.783203,215.846603 428.067322,213.302597 426.366119,210.887497 
	C424.108521,207.682495 421.540222,204.696365 418.685883,201.085449 
	C442.550049,201.085449 465.613129,201.085449 488.923187,201.085449 
	C506.035065,247.917770 523.142822,294.738739 540.672485,342.714478 
	C541.705505,340.118073 542.426208,338.438232 543.048706,336.722839 
	C558.923584,292.979187 574.840820,249.250732 590.556885,205.450089 
	C591.846375,201.856216 593.406921,200.699646 597.214905,200.741013 
	C616.865234,200.954544 636.519104,200.840118 656.762512,200.840118 
	C656.054810,203.139389 655.541504,205.117706 654.843994,207.028763 
	C628.118286,280.251099 601.394958,353.474335 574.569397,426.660065 
	C573.410645,429.821442 573.341492,432.455719 574.513367,435.656189 
	C601.656738,509.787628 628.684570,583.961365 655.726807,658.129822 
	C656.118469,659.204041 656.420898,660.310913 656.867615,661.728394 
	C635.364929,661.728394 614.134766,661.728394 592.283386,661.728394 
	C586.614746,646.167419 580.835632,630.302979 574.958618,614.059387 
z"/>
<path fill="#4D5D72" opacity="1.000000" stroke="none" 
	d="
M1786.000000,200.844528 
	C1794.470337,200.844498 1802.440674,200.844498 1810.701904,200.844498 
	C1810.701904,223.945465 1810.701904,246.695831 1810.701904,269.929626 
	C1771.510254,269.929626 1732.300415,269.929626 1693.090576,269.929626 
	C1692.930420,270.285095 1692.770142,270.640533 1692.609985,270.996002 
	C1696.346436,273.846222 1699.897095,276.994781 1703.868164,279.468323 
	C1708.434448,282.312653 1709.959595,285.815674 1709.909546,291.306305 
	C1709.609131,324.301025 1709.761475,357.299896 1709.761963,390.297363 
	C1709.761963,392.100800 1709.761841,393.904205 1709.761841,396.259399 
	C1733.551392,396.259399 1756.947510,396.259399 1780.677734,396.259399 
	C1780.677734,419.869965 1780.677734,442.928040 1780.677734,466.558899 
	C1751.612183,466.558899 1722.568604,466.558899 1693.524902,466.558899 
	C1693.412231,466.893982 1693.299561,467.229095 1693.186768,467.564178 
	C1697.247559,470.582092 1701.171753,473.811340 1705.412842,476.549744 
	C1708.697388,478.670563 1709.884399,481.142517 1709.864136,485.121063 
	C1709.693604,518.784302 1709.767822,552.448730 1709.768311,586.112854 
	C1709.768311,588.059387 1709.768311,590.005920 1709.768311,592.466675 
	C1743.786255,592.466675 1777.200806,592.466675 1810.805420,592.466675 
	C1810.805420,615.769653 1810.805420,638.551575 1810.805420,661.669006 
	C1757.024414,661.669006 1703.296997,661.669006 1648.918579,661.669006 
	C1648.918579,659.618469 1648.918579,657.523193 1648.918579,655.427856 
	C1648.920288,511.605499 1648.882080,367.783112 1649.052124,223.960968 
	C1649.059937,217.422104 1648.017456,211.959244 1643.187134,207.383835 
	C1641.525269,205.809601 1640.318237,203.755066 1638.074341,200.844559 
	C1687.851685,200.844559 1736.675781,200.844559 1786.000000,200.844528 
z"/>
<path fill="#425369" opacity="1.000000" stroke="none" 
	d="
M270.989441,403.616821 
	C267.508667,403.616821 264.027893,403.616821 260.169464,403.616821 
	C260.169464,422.925720 260.169464,441.787903 260.169464,461.128235 
	C273.850708,461.128235 287.431152,461.128235 301.314514,461.128235 
	C301.314514,477.849670 301.314514,494.098328 301.314514,510.796570 
	C287.683594,510.796570 274.108154,510.796570 259.971191,510.796570 
	C259.971191,540.110474 259.971191,568.986267 259.971191,598.204468 
	C243.158890,598.204468 226.908524,598.204468 210.127533,598.204468 
	C210.127533,569.328125 210.127533,540.450867 210.127533,511.288605 
	C190.863129,511.288605 172.124710,511.288605 152.796112,511.288605 
	C152.796112,540.197571 152.796112,569.067139 152.796112,598.240906 
	C135.963409,598.240906 119.717438,598.240906 103.112183,598.240906 
	C103.112183,569.340149 103.112183,540.576111 103.112183,511.270081 
	C89.054428,511.270081 75.335007,511.270081 61.309784,511.270081 
	C61.309784,494.357147 61.309784,477.986298 61.309784,461.203522 
	C75.114960,461.203522 88.712135,461.203522 102.607971,461.203522 
	C102.607971,442.052673 102.607971,423.309509 102.607971,403.963684 
	C88.908356,403.963684 75.199715,403.963684 61.249748,403.963684 
	C61.249748,387.110779 61.249748,370.857178 61.249748,354.063019 
	C75.002975,354.063019 88.725044,354.063019 102.911453,354.063019 
	C102.911453,324.793823 102.911453,296.058929 102.911453,267.083160 
	C119.633965,267.083160 135.881927,267.083160 152.629364,267.083160 
	C152.629364,295.993164 152.629364,324.733032 152.629364,353.735046 
	C171.875244,353.735046 190.623993,353.735046 209.838486,353.735046 
	C209.838486,324.925446 209.838486,296.189789 209.838486,266.873505 
	C214.213974,266.873505 218.147614,266.873505 222.532257,267.329193 
	C222.383057,269.079163 221.782883,270.373444 221.645203,270.670319 
	C222.592621,274.321411 223.325760,277.146790 224.200211,280.516724 
	C228.716492,281.072968 226.873840,284.669983 226.634048,287.676971 
	C228.766983,291.819489 230.350616,296.161316 231.995468,300.479767 
	C233.539001,304.532227 235.024155,308.614380 236.774002,312.577972 
	C237.798340,314.898254 239.290237,317.012146 240.571823,319.218872 
	C239.916595,319.565857 239.261368,319.912842 238.606140,320.259857 
	C245.075317,320.952637 242.582047,324.955658 242.889679,328.007416 
	C244.186249,330.016144 244.754089,332.216431 245.343964,334.410828 
	C246.050125,337.037903 246.074448,341.319153 247.623245,341.973145 
	C252.278900,343.939148 250.868011,346.892456 250.191238,349.480865 
	C251.599747,351.195099 253.135254,352.375519 253.734314,353.919342 
	C255.696518,358.976135 254.225220,365.672119 261.016937,368.415924 
	C261.567780,368.638428 261.545593,370.485321 261.631470,371.589691 
	C261.704193,372.524689 261.224274,373.608582 261.545502,374.400940 
	C263.496948,379.214508 267.587463,383.306671 266.362305,389.183655 
	C266.290375,389.528595 266.748810,390.156097 267.124176,390.396332 
	C272.270813,393.690277 271.598145,398.658447 270.989441,403.616821 
M199.477524,403.840363 
	C184.044113,403.840363 168.610703,403.840363 153.148239,403.840363 
	C153.148239,423.249634 153.148239,442.094727 153.148239,460.785492 
	C172.274399,460.785492 190.991135,460.785492 209.960159,460.785492 
	C209.960159,451.106384 209.960144,441.799530 209.960144,432.492676 
	C209.960144,423.056396 209.960159,413.620087 209.960159,403.840332 
	C206.405777,403.840332 203.436371,403.840332 199.477524,403.840363 
z"/>
<path fill="#48586E" opacity="1.000000" stroke="none" 
	d="
M940.995972,724.166992 
	C941.991028,724.110352 942.986145,724.004028 943.981201,724.004028 
	C1092.680298,724.006409 1241.379517,724.016418 1390.539062,724.528687 
	C1391.102539,726.924194 1391.205566,728.817078 1391.308594,730.709900 
	C1391.721802,730.403259 1392.135010,730.096558 1392.548340,729.789917 
	C1394.397339,731.095154 1396.954224,732.015259 1397.924683,733.798645 
	C1399.277954,736.285767 1399.188599,739.437561 1403.312744,739.455627 
	C1404.278687,739.459839 1405.235596,741.519043 1406.749023,743.272949 
	C1404.614136,743.636902 1403.461670,743.620361 1402.495361,744.036377 
	C1398.962402,745.557190 1395.491821,747.222229 1391.997681,748.832947 
	C1391.002197,748.887085 1390.006836,748.988708 1389.011353,748.988708 
	C1237.979736,748.990845 1086.948120,748.985718 935.540283,748.557129 
	C938.472717,746.761475 941.781372,745.389587 946.493164,743.435913 
	C943.113770,741.863586 941.161072,740.955017 938.947205,739.924927 
	C941.881531,733.949646 938.377502,732.588806 933.342468,732.610779 
	C933.342468,730.354248 933.342468,728.464905 933.342468,727.154846 
	C936.216064,726.033020 938.606018,725.099976 940.995972,724.166992 
z"/>
<path fill="#415369" opacity="1.000000" stroke="none" 
	d="
M524.995605,748.832947 
	C523.499390,748.887207 522.003235,748.988770 520.507019,748.988892 
	C369.028748,748.998596 217.550507,749.000671 66.072250,749.003235 
	C64.593323,749.003235 63.114391,749.003235 61.316673,749.003235 
	C61.316673,740.691650 61.316673,732.630188 61.316673,724.026550 
	C211.573425,724.026550 361.821106,724.026550 512.540405,724.464050 
	C513.800415,726.856628 514.440430,728.888489 515.404358,730.752747 
	C518.537659,736.812439 521.789429,742.810913 524.995605,748.832947 
z"/>
<path fill="#45556C" opacity="1.000000" stroke="none" 
	d="
M525.459473,748.906555 
	C521.789429,742.810913 518.537659,736.812439 515.404358,730.752747 
	C514.440430,728.888489 513.800415,726.856628 513.004150,724.534302 
	C513.991272,724.110413 514.986389,724.004089 515.981445,724.004089 
	C657.343750,724.006714 798.706116,724.017090 940.532227,724.097046 
	C938.606018,725.099976 936.216064,726.033020 933.342468,727.154846 
	C933.342468,728.464905 933.342468,730.354248 933.342468,732.610779 
	C938.377502,732.588806 941.881531,733.949646 938.947205,739.924927 
	C941.161072,740.955017 943.113770,741.863586 946.493164,743.435913 
	C941.781372,745.389587 938.472717,746.761475 935.081543,748.483154 
	C934.003662,748.887024 933.008240,748.988342 932.012817,748.988403 
	C796.649658,748.990479 661.286499,748.985168 525.459473,748.906555 
z"/>
<path fill="#4A5B70" opacity="1.000000" stroke="none" 
	d="
M1392.461426,748.905945 
	C1395.491821,747.222229 1398.962402,745.557190 1402.495361,744.036377 
	C1403.461670,743.620361 1404.614136,743.636902 1406.749023,743.272949 
	C1405.235596,741.519043 1404.278687,739.459839 1403.312744,739.455627 
	C1399.188599,739.437561 1399.277954,736.285767 1397.924683,733.798645 
	C1396.954224,732.015259 1394.397339,731.095154 1392.548340,729.789917 
	C1392.135010,730.096558 1391.721802,730.403259 1391.308594,730.709900 
	C1391.205566,728.817078 1391.102539,726.924194 1390.997925,724.599243 
	C1392.492188,724.110352 1393.987915,724.004211 1395.483765,724.004150 
	C1532.287964,723.998840 1669.092285,724.001648 1805.896484,724.003906 
	C1807.378296,724.003906 1808.860107,724.003906 1810.666016,724.003906 
	C1810.666016,732.309570 1810.666016,740.367188 1810.666016,748.978943 
	C1671.407104,748.978943 1532.166260,748.978943 1392.461426,748.905945 
z"/>
<path fill="#44556B" opacity="1.000000" stroke="none" 
	d="
M271.449982,403.712036 
	C271.598145,398.658447 272.270813,393.690277 267.124176,390.396332 
	C266.748810,390.156097 266.290375,389.528595 266.362305,389.183655 
	C267.587463,383.306671 263.496948,379.214508 261.545502,374.400940 
	C261.224274,373.608582 261.704193,372.524689 261.631470,371.589691 
	C261.545593,370.485321 261.567780,368.638428 261.016937,368.415924 
	C254.225220,365.672119 255.696518,358.976135 253.734314,353.919342 
	C253.135254,352.375519 251.599747,351.195099 250.191238,349.480865 
	C250.868011,346.892456 252.278900,343.939148 247.623245,341.973145 
	C246.074448,341.319153 246.050125,337.037903 245.343964,334.410828 
	C244.754089,332.216431 244.186249,330.016144 242.889679,328.007416 
	C242.582047,324.955658 245.075317,320.952637 238.606140,320.259857 
	C239.261368,319.912842 239.916595,319.565857 240.571823,319.218872 
	C239.290237,317.012146 237.798340,314.898254 236.774002,312.577972 
	C235.024155,308.614380 233.539001,304.532227 231.995468,300.479767 
	C230.350616,296.161316 228.766983,291.819489 226.634048,287.676971 
	C226.873840,284.669983 228.716492,281.072968 224.200211,280.516724 
	C223.325760,277.146790 222.592621,274.321411 221.645203,270.670319 
	C221.782883,270.373444 222.383057,269.079163 222.991241,267.418945 
	C235.104004,267.053040 247.208786,267.053040 259.640442,267.053040 
	C259.640442,296.014160 259.640442,324.630463 259.640442,353.836304 
	C273.670166,353.836304 287.389130,353.836304 301.365967,353.836304 
	C301.365967,370.677948 301.365967,386.929657 301.365967,403.807251 
	C291.434875,403.807251 281.672699,403.807251 271.449982,403.712036 
z"/>
<path fill="#FDFEFE" opacity="1.000000" stroke="none" 
	d="
M1564.177734,342.000000 
	C1564.177734,359.798492 1564.177734,377.096985 1564.177734,394.698303 
	C1540.477661,394.698303 1517.103638,394.698303 1493.236206,394.698303 
	C1493.236206,392.695282 1493.236206,390.905212 1493.236206,389.115173 
	C1493.235840,355.132843 1493.166504,321.150208 1493.331543,287.168671 
	C1493.349976,283.372528 1492.203247,281.015045 1489.134033,278.944183 
	C1484.889282,276.080109 1480.932983,272.788635 1475.833252,268.903259 
	C1505.866455,268.903259 1534.645020,268.903259 1564.177612,268.903259 
	C1564.177612,293.033783 1564.177612,317.266907 1564.177734,342.000000 
z"/>
<path fill="#FFFFFF" opacity="1.000000" stroke="none" 
	d="
M1273.964600,423.000000 
	C1273.964233,378.013214 1273.907715,333.526245 1274.062622,289.039978 
	C1274.075806,285.239410 1272.931030,282.897705 1269.887695,280.822418 
	C1265.788330,278.026947 1261.977051,274.809021 1257.118286,271.059387 
	C1286.979614,271.059387 1315.755249,271.059387 1344.869385,271.059387 
	C1344.869385,377.829620 1344.869385,484.715179 1344.869385,592.016357 
	C1321.509521,592.016357 1298.121704,592.016357 1273.964600,592.016357 
	C1273.964600,535.963379 1273.964600,479.731689 1273.964600,423.000000 
z"/>
<path fill="#FFFFFF" opacity="1.000000" stroke="none" 
	d="
M199.972244,403.840332 
	C203.436371,403.840332 206.405777,403.840332 209.960159,403.840332 
	C209.960159,413.620087 209.960144,423.056396 209.960144,432.492676 
	C209.960144,441.799530 209.960159,451.106384 209.960159,460.785492 
	C190.991135,460.785492 172.274399,460.785492 153.148239,460.785492 
	C153.148239,442.094727 153.148239,423.249634 153.148239,403.840363 
	C168.610703,403.840363 184.044113,403.840363 199.972244,403.840332 
z"/>
</svg>